<svg width="35" height="35" viewBox="0 0 35 35" fill="none" xmlns="http://www.w3.org/2000/svg">
<mask id="mask0_627_3996" style="mask-type:alpha" maskUnits="userSpaceOnUse" x="0" y="0" width="35" height="35">
<path d="M17.5 35C27.165 35 35 27.165 35 17.5C35 7.83502 27.165 0 17.5 0C7.83502 0 0 7.83502 0 17.5C0 27.165 7.83502 35 17.5 35Z" fill="#D9D9D9"/>
</mask>
<g mask="url(#mask0_627_3996)">
<mask id="mask1_627_3996" style="mask-type:luminance" maskUnits="userSpaceOnUse" x="-1" y="-1" width="54" height="38">
<path d="M52.1908 -0.289246H-0.289062V36.8425H52.1908V-0.289246Z" fill="white"/>
</mask>
<g mask="url(#mask1_627_3996)">
<path fill-rule="evenodd" clip-rule="evenodd" d="M3.52334 -0.289246H31.4394C33.5453 -0.289246 35.2519 1.41737 35.2519 3.52316V31.4392C35.2519 33.5451 33.5453 35.2517 31.4394 35.2517H3.52334C1.41755 35.2544 -0.289062 33.548 -0.289062 31.4421V3.52316C-0.289062 1.41737 1.41755 -0.289246 3.52334 -0.289246Z" fill="#20A0E1"/>
<path fill-rule="evenodd" clip-rule="evenodd" d="M21.6165 12.7504C21.7525 12.4785 22.0244 12.4785 22.0244 12.0707C21.4806 12.0707 21.0698 12.4785 20.7979 12.6145L11.6748 18.3331L13.4451 23.9157C13.7169 23.6438 13.7169 23.3719 13.7169 22.8252C13.7169 22.5533 13.8529 22.0095 13.8529 21.7347V20.7802C13.9888 20.6442 13.9888 20.5083 13.9888 20.2364C13.9888 20.1004 13.9888 19.9645 13.9888 19.8285C14.1248 19.5566 14.2607 19.6926 14.3967 19.4207C16.4417 17.2455 19.2996 14.7926 21.6165 12.7504Z" fill="#B3BFCA"/>
<path fill-rule="evenodd" clip-rule="evenodd" d="M7.17941 16.6988L11.6745 18.3331L21.2084 12.3397C21.4803 12.2037 21.7521 12.0678 22.024 12.0678C22.024 12.4756 21.4803 12.8835 21.2084 13.1583C19.1662 14.9285 15.7617 17.5174 13.9914 19.5595L15.6257 20.786C15.8976 20.786 16.5803 21.4657 16.7162 21.6017C16.9881 21.7376 18.0786 22.5562 18.2145 22.8281C18.4864 22.8281 18.4864 22.9641 18.6224 23.1L19.9848 24.0546C20.5286 24.4624 21.0753 25.1451 22.027 24.4624L25.0207 10.8442C25.4286 8.53019 24.341 8.93805 22.8426 9.48184L7.59015 15.6112C7.04348 15.8831 6.49966 16.5628 7.17941 16.6988Z" fill="#FEFEFE"/>
<path fill-rule="evenodd" clip-rule="evenodd" d="M13.4448 23.9186L13.5808 24.0546C13.8527 24.0546 14.1246 23.9186 14.3965 23.6467L16.7105 21.6046C16.5746 21.4686 15.8948 20.7889 15.62 20.7889L13.9857 19.5624L13.4448 23.9186Z" fill="#8595A7"/>
<path fill-rule="evenodd" clip-rule="evenodd" d="M25.0207 10.8442L22.024 24.4624C21.0694 25.1421 20.5256 24.4624 19.9818 24.0546L18.6194 23.1C18.4835 22.9641 18.4835 22.8281 18.2116 22.8281C18.0756 22.5562 16.9851 21.7376 16.7133 21.6017L14.3992 23.6438C14.1273 23.7798 13.8554 23.9157 13.5835 24.0517L26.5075 36.8397L52.1934 36.6429L24.8847 9.20993C25.1566 9.48183 25.1566 9.88968 25.0207 10.8442Z" fill="#1A82B7"/>
<path fill-rule="evenodd" clip-rule="evenodd" d="M7.17969 16.6988L13.0371 22.6922L11.6747 18.3331L7.17969 16.6988Z" fill="#1A82B7"/>
<path d="M20.7311 24.6346L13.8657 19.6539L16.8273 16.8269L20.7311 24.6346Z" fill="white"/>
</g>
</g>
</svg>
