<svg width="35" height="35" viewBox="0 0 35 35" fill="none" xmlns="http://www.w3.org/2000/svg">
<path fill-rule="evenodd" clip-rule="evenodd" d="M3.80951 -0.578522H31.6968C33.8025 -0.578522 35.5062 1.12809 35.5062 3.23097V31.1182C35.5062 33.2239 33.7995 34.9276 31.6968 34.9276H3.80951C1.70661 34.9305 0 33.2239 0 31.1212V3.23097C0 1.12809 1.70661 -0.578522 3.80951 -0.578522Z" fill="#2AB200"/>
<path fill-rule="evenodd" clip-rule="evenodd" d="M17.8934 7.64212C22.6662 7.64212 26.5277 11.5008 26.5277 16.2359C26.5277 21.0086 22.6691 24.8702 17.8934 24.8702C16.3806 24.8702 14.9083 24.4711 13.6761 23.7971L8.98145 25.2694L10.4538 20.6558C9.69881 19.383 9.25913 17.8702 9.25913 16.2388C9.26204 11.5008 13.1207 7.64212 17.8934 7.64212ZM15.9062 15.5967C15.9062 15.5967 16.5426 16.6322 17.5781 17.4653C18.6137 18.2607 19.1691 18.4198 19.1691 18.4198C19.1691 18.4198 20.0831 17.2657 20.2046 17.2657C20.3232 17.2252 21.1186 17.5839 21.4773 17.7835C21.7955 17.9425 22.2728 18.2202 22.2728 18.3417C22.2728 18.4227 22.2323 19.1372 21.9951 19.4149C21.755 19.6549 21.081 20.2913 20.4447 20.2103C17.341 19.9702 14.4773 17.1471 13.9595 15.0789C13.8786 14.7202 13.9191 13.3289 14.1996 12.9702C14.5178 12.6116 14.7174 12.3744 15.1137 12.3339C15.5128 12.2934 15.75 12.3339 15.8686 12.6116C16.0277 12.8892 16.6236 14.243 16.6641 14.402C16.7017 14.564 15.8658 15.3595 15.9062 15.5967ZM14.6711 22.6806C15.6257 23.1578 16.7393 23.4355 17.8934 23.4355C21.8707 23.4355 25.0554 20.2132 25.0554 16.2359C25.0554 12.2963 21.8736 9.07394 17.8934 9.07394C13.9133 9.07394 10.6939 12.2963 10.6939 16.233C10.6939 17.7835 11.2116 19.2182 12.0071 20.3694L11.2116 23.1144L13.9567 22.2785L14.6711 22.6806Z" fill="white"/>
<path fill-rule="evenodd" clip-rule="evenodd" d="M26.5278 16.233C26.5278 22.8772 19.3658 26.9731 13.679 23.7913L8.98438 25.2636L19.7158 35.9951L37.3141 36.0123L35.4919 21.8967L25.0959 11.5008C25.9695 12.8516 26.5278 14.483 26.5278 16.233Z" fill="#229000"/>
<path fill-rule="evenodd" clip-rule="evenodd" d="M14.6709 22.6805C19.3655 25.0264 25.0552 21.645 25.0552 16.2359C25.0552 12.2963 21.8733 9.07394 17.8932 9.07394C12.0444 9.07394 8.70351 15.6777 12.0039 20.3723L11.2085 23.1173L13.9535 22.2814L14.6709 22.6805ZM20.4386 20.2132C17.3349 19.9731 14.4713 17.15 13.9535 15.0818C13.7539 14.2458 13.994 12.4553 15.1077 12.3368C15.5068 12.2963 15.744 12.3368 15.8626 12.6144C16.0217 12.8921 16.6176 14.2458 16.658 14.4049C16.6985 14.564 15.8626 15.3595 15.9031 15.5996C16.3399 16.3545 18.0118 18.145 19.1659 18.4256C20.2795 17.0343 20.0019 17.0343 21.4742 17.7892C21.7924 17.9483 22.2696 18.226 22.2696 18.3475C22.2696 19.5363 21.1965 20.2913 20.4386 20.2132Z" fill="#229000"/>
</svg>
