<svg width="28" height="28" viewBox="0 0 28 28" fill="none" xmlns="http://www.w3.org/2000/svg">
<path fill-rule="evenodd" clip-rule="evenodd" d="M5.55902 2.85239C7.84759 1.09692 10.6979 0.177847 13.5678 0.0270996C13.4628 2.62141 13.5019 5.26678 12.7838 7.78328C12.2489 9.75272 10.864 11.5009 8.98822 12.3568C6.16474 13.57 3.01643 13.4801 0 13.6016C0 9.41962 2.20065 5.33243 5.55902 2.85239Z" fill="white"/>
<path fill-rule="evenodd" clip-rule="evenodd" d="M14.4229 0C16.963 0.211532 19.508 0.875306 21.6378 2.31713C25.4334 4.74367 27.9198 9.10075 27.9907 13.6013C25.2014 13.504 22.3315 13.5429 19.6595 12.6312C17.7299 11.9528 16.1081 10.4332 15.434 8.49533C14.4473 5.78432 14.4717 2.84475 14.4229 0Z" fill="white"/>
<path fill-rule="evenodd" clip-rule="evenodd" d="M20.1655 15.2255C22.7155 14.5277 25.3777 14.5059 28.0009 14.4451C27.9106 17.9876 26.3913 21.4767 23.8317 23.9446C21.3648 26.4246 17.9136 27.8567 14.4209 27.9977C14.4893 25.1019 14.4404 22.1016 15.5005 19.3541C16.2552 17.3239 18.0968 15.8115 20.1655 15.2255Z" fill="white"/>
<path fill-rule="evenodd" clip-rule="evenodd" d="M7.80668e-05 14.4497C3.17038 14.5616 6.55562 14.4157 9.44748 15.928C11.4259 16.9346 12.5909 19.028 13.0061 21.1361C13.48 23.3924 13.4946 25.7071 13.5532 27.9999C9.80896 27.8565 6.13796 26.208 3.61979 23.4338C1.40937 20.9926 -0.0121342 17.7589 7.80668e-05 14.4497Z" fill="white"/>
</svg>
