<svg width="28" height="28" viewBox="0 0 28 28" fill="none" xmlns="http://www.w3.org/2000/svg">
<path d="M21.457 8.26069C22.4254 8.26069 23.2104 7.47567 23.2104 6.5073C23.2104 5.53893 22.4254 4.75391 21.457 4.75391C20.4886 4.75391 19.7036 5.53893 19.7036 6.5073C19.7036 7.47567 20.4886 8.26069 21.457 8.26069Z" fill="white"/>
<path d="M21.0045 0L6.99548 0C3.12718 0 0 3.12718 0 6.99548L0 21.0045C0 24.8728 3.12718 28 6.99548 28H21.0045C24.8728 28 28 24.8728 28 21.0045L28 6.99548C28 3.12718 24.8728 0 21.0045 0ZM25.5597 21.0045C25.5597 23.5171 23.5171 25.5597 21.0045 25.5597H6.99548C4.48289 25.5597 2.44028 23.5171 2.44028 21.0045L2.44028 6.99548C2.44028 4.48289 4.48289 2.44028 6.99548 2.44028L21.0045 2.44028C23.5171 2.44028 25.5597 4.48289 25.5597 6.99548L25.5597 21.0045Z" fill="white"/>
<path d="M14.0087 6.99536C10.1404 6.99536 7.01318 10.1225 7.01318 13.9908C7.01318 17.8591 10.1404 20.9863 14.0087 20.9863C17.877 20.9863 21.0041 17.8591 21.0041 13.9908C21.0041 10.1225 17.877 6.99536 14.0087 6.99536ZM14.0087 18.546C11.4961 18.546 9.45347 16.5034 9.45347 13.9908C9.45347 11.4783 11.4961 9.43565 14.0087 9.43565C16.5213 9.43565 18.5639 11.4783 18.5639 13.9908C18.5639 16.5034 16.5213 18.546 14.0087 18.546Z" fill="white"/>
</svg>
