<svg width="18" height="25" viewBox="0 0 18 25" fill="none" xmlns="http://www.w3.org/2000/svg">
<path d="M3.10401 23.9999V1.15186H9.12001C11.9147 1.15186 13.984 1.71719 15.328 2.84786C16.6933 3.97852 17.376 5.62119 17.376 7.77586C17.376 9.22652 17.0453 10.4745 16.384 11.5199C15.7227 12.5439 14.7413 13.3332 13.44 13.8879C12.16 14.4425 10.5707 14.7199 8.67201 14.7199H5.98401V23.9999H3.10401ZM0.320007 19.6479V17.5679H11.264V19.6479H0.320007ZM0.320007 14.7199V12.2879H7.64801V14.7199H0.320007ZM8.25601 12.2879C9.55734 12.2879 10.656 12.1492 11.552 11.8719C12.4693 11.5945 13.1733 11.1359 13.664 10.4959C14.1547 9.85586 14.4 8.98119 14.4 7.87186C14.4 6.42119 13.952 5.34386 13.056 4.63986C12.16 3.93586 10.7627 3.58386 8.86401 3.58386H5.98401V12.2879H8.25601Z" fill="#009FE3"/>
</svg>
