<svg width="104" height="96" viewBox="0 0 104 96" fill="none" xmlns="http://www.w3.org/2000/svg">
<path d="M60.7095 56.6108L72.7357 68.6371C75.2104 71.1118 75.2104 75.1317 72.7357 77.6176L72.3998 77.9535C69.9251 80.4282 65.9052 80.4282 63.4193 77.9535" stroke="#009FE3" stroke-width="3" stroke-linecap="round" stroke-linejoin="round"/>
<path d="M9.25606 47.8319C4.75461 42.9609 2 36.4551 2 29.2998C2 14.2278 14.2278 2 29.2998 2C38.6386 2 46.8913 6.6918 51.807 13.8471" stroke="#009FE3" stroke-width="3" stroke-linecap="round" stroke-linejoin="round"/>
<path d="M9.24512 47.843L19.6813 58.2792" stroke="#009FE3" stroke-width="3" stroke-linecap="round" stroke-linejoin="round"/>
<path d="M63.3962 77.9311L63.0637 77.5986C60.5842 75.1191 56.5642 75.1191 54.0848 77.5986L49.4845 82.1989C47.005 84.6783 47.005 88.6983 49.4845 91.1778L49.817 91.5104C52.2965 93.9898 56.3165 93.9898 58.7959 91.5104L63.3962 86.91C65.8757 84.4306 65.8757 80.4106 63.3962 77.9311Z" stroke="#666666" stroke-width="3" stroke-linecap="round" stroke-linejoin="round"/>
<path d="M54.0915 68.6079L53.759 68.2753C51.2795 65.7959 47.2595 65.7959 44.7801 68.2753L40.1798 72.8756C37.7003 75.3551 37.7003 79.3751 40.1798 81.8546L40.5123 82.1871C42.9918 84.6666 47.0118 84.6666 49.4912 82.1871L54.0915 77.5868C56.571 75.1074 56.571 71.0874 54.0915 68.6079Z" stroke="#666666" stroke-width="3" stroke-linecap="round" stroke-linejoin="round"/>
<path d="M44.7746 59.3113L44.4421 58.9787C41.9626 56.4993 37.9426 56.4993 35.4632 58.9787L30.8629 63.579C28.3834 66.0585 28.3834 70.0785 30.8629 72.5579L31.1954 72.8905C33.6749 75.3699 37.6949 75.3699 40.1743 72.8905L44.7746 68.2902C47.2541 65.8107 47.2541 61.7907 44.7746 59.3113Z" stroke="#666666" stroke-width="3" stroke-linecap="round" stroke-linejoin="round"/>
<path d="M35.4582 49.988L35.1257 49.6555C32.6462 47.176 28.6262 47.176 26.1468 49.6555L21.5465 54.2558C19.067 56.7352 19.067 60.7552 21.5465 63.2347L21.879 63.5672C24.3585 66.0467 28.3785 66.0467 30.8579 63.5672L35.4582 58.9669C37.9377 56.4875 37.9377 52.4675 35.4582 49.988Z" stroke="#666666" stroke-width="3" stroke-linecap="round" stroke-linejoin="round"/>
<path d="M65.3895 24.0369L50.687 38.7394C47.4061 42.0203 42.0761 42.0203 38.7951 38.7394C35.5142 35.4585 35.5142 30.1284 38.7951 26.8475L51.4037 14.239" stroke="#666666" stroke-width="3" stroke-linecap="round" stroke-linejoin="round"/>
<path d="M51.8853 13.9031C56.801 6.7142 65.0649 2 74.4373 2C89.5205 2 101.737 14.2278 101.737 29.2998C101.737 36.4551 98.9824 42.9721 94.4698 47.843" stroke="#666666" stroke-width="3" stroke-linecap="round" stroke-linejoin="round"/>
<path d="M94.4696 47.843L91.939 50.3737" stroke="#666666" stroke-width="3" stroke-linecap="round" stroke-linejoin="round"/>
<path d="M65.3564 24.0032L91.3685 50.0152C93.8432 52.4899 93.8432 56.5099 91.3685 58.9957L91.0326 59.3317C88.5579 61.8063 84.538 61.8063 82.0521 59.3317L70.1378 47.4174" stroke="#009FE3" stroke-width="3" stroke-linecap="round" stroke-linejoin="round"/>
<path d="M70.1379 47.4172L82.0521 59.3315C84.5268 61.8062 84.5268 65.8261 82.0521 68.312L81.7162 68.6479C79.2415 71.1226 75.2216 71.1226 72.7357 68.6479L60.7095 56.6217" stroke="#009FE3" stroke-width="3" stroke-linecap="round" stroke-linejoin="round"/>
</svg>
