<svg width="94" height="97" viewBox="0 0 94 97" fill="none" xmlns="http://www.w3.org/2000/svg">
<path d="M86.7368 10H6.73682C3.97539 10 1.73682 12.2386 1.73682 15V90C1.73682 92.7614 3.97539 95 6.73682 95H86.7368C89.4982 95 91.7368 92.7614 91.7368 90V15C91.7368 12.2386 89.4982 10 86.7368 10Z" stroke="#666666" stroke-width="3" stroke-linecap="round" stroke-linejoin="round"/>
<path d="M34.2368 65H21.7368V77.5H34.2368V65Z" stroke="#666666" stroke-width="3" stroke-linecap="round" stroke-linejoin="round"/>
<path d="M46.7368 52.5H34.2368V65H46.7368V52.5Z" stroke="#666666" stroke-width="3" stroke-linecap="round" stroke-linejoin="round"/>
<path d="M46.7368 65H34.2368V77.5H46.7368V65Z" stroke="#666666" stroke-width="3" stroke-linecap="round" stroke-linejoin="round"/>
<path d="M59.2368 52.5H46.7368V65H59.2368V52.5Z" stroke="#666666" stroke-width="3" stroke-linecap="round" stroke-linejoin="round"/>
<path d="M59.2368 65H46.7368V77.5H59.2368V65Z" stroke="#666666" stroke-width="3" stroke-linecap="round" stroke-linejoin="round"/>
<path d="M71.7368 52.5H59.2368V65H71.7368V52.5Z" stroke="#666666" stroke-width="3" stroke-linecap="round" stroke-linejoin="round"/>
<path d="M71.7368 65H59.2368V77.5H71.7368V65Z" stroke="#666666" stroke-width="3" stroke-linecap="round" stroke-linejoin="round"/>
<path d="M34.2368 40H21.7368V52.5H34.2368V40Z" stroke="#009FE3" stroke-width="3" stroke-linecap="round" stroke-linejoin="round"/>
<path d="M34.2368 52.5H21.7368V65H34.2368V52.5Z" stroke="#009FE3" stroke-width="3" stroke-linecap="round" stroke-linejoin="round"/>
<path d="M46.7368 40H34.2368V52.5H46.7368V40Z" stroke="#009FE3" stroke-width="3" stroke-linecap="round" stroke-linejoin="round"/>
<path d="M59.2368 40H46.7368V52.5H59.2368V40Z" stroke="#009FE3" stroke-width="3" stroke-linecap="round" stroke-linejoin="round"/>
<path d="M71.7368 40H59.2368V52.5H71.7368V40Z" stroke="#009FE3" stroke-width="3" stroke-linecap="round" stroke-linejoin="round"/>
<path d="M1.73682 25.8171H91.7368" stroke="#666666" stroke-width="3" stroke-linecap="round" stroke-linejoin="round"/>
<path d="M23.7368 14V6C23.7368 3.79086 21.946 2 19.7368 2C17.5277 2 15.7368 3.79086 15.7368 6V14C15.7368 16.2091 17.5277 18 19.7368 18C21.946 18 23.7368 16.2091 23.7368 14Z" fill="white" stroke="#666666" stroke-width="3" stroke-linecap="round" stroke-linejoin="round"/>
<path d="M75.7368 14V6C75.7368 3.79086 73.946 2 71.7368 2C69.5277 2 67.7368 3.79086 67.7368 6V14C67.7368 16.2091 69.5277 18 71.7368 18C73.946 18 75.7368 16.2091 75.7368 14Z" fill="white" stroke="#666666" stroke-width="3" stroke-linecap="round" stroke-linejoin="round"/>
</svg>
