<svg width="229" height="42" viewBox="0 0 229 42" fill="none" xmlns="http://www.w3.org/2000/svg">
<path d="M128.768 22.392C130.152 22.392 131.096 23.392 131.096 25.248C131.096 27.072 130.152 28.096 128.768 28.096C127.392 28.096 126.44 27.104 126.44 25.256C126.44 23.44 127.392 22.392 128.768 22.392ZM128.768 23.016C127.848 23.016 127.248 23.664 127.248 25.256C127.248 26.848 127.872 27.472 128.768 27.472C129.696 27.472 130.288 26.848 130.288 25.248C130.288 23.664 129.712 23.016 128.768 23.016ZM134.051 23.688C135.171 23.688 135.611 24.56 135.611 25.888C135.611 27.168 135.043 28.096 133.955 28.096C133.499 28.096 133.123 27.944 132.851 27.616V29.616L132.115 29.704V23.784H132.747L132.803 24.352C133.115 23.92 133.571 23.688 134.051 23.688ZM133.779 27.496C134.451 27.496 134.819 26.992 134.819 25.888C134.819 24.792 134.499 24.272 133.867 24.272C133.419 24.272 133.075 24.592 132.851 24.928V26.984C133.067 27.312 133.395 27.496 133.779 27.496ZM138.515 27.32L138.795 27.808C138.515 28 138.211 28.096 137.851 28.096C137.139 28.096 136.715 27.68 136.715 26.896V24.352H135.979V23.784H136.715V22.832L137.451 22.744V23.784H138.451L138.371 24.352H137.451V26.864C137.451 27.288 137.587 27.488 137.955 27.488C138.139 27.488 138.307 27.432 138.515 27.32ZM139.733 21.76C140.045 21.76 140.253 21.976 140.253 22.264C140.253 22.544 140.045 22.76 139.733 22.76C139.429 22.76 139.221 22.544 139.221 22.264C139.221 21.976 139.429 21.76 139.733 21.76ZM140.109 23.784V28H139.373V23.784H140.109ZM145.656 23.688C146.344 23.688 146.8 24.184 146.8 24.976V28H146.064V25.08C146.064 24.448 145.792 24.264 145.472 24.264C145.016 24.264 144.768 24.56 144.48 25.008V28H143.744V25.08C143.744 24.448 143.472 24.264 143.152 24.264C142.696 24.264 142.44 24.56 142.16 25.008V28H141.424V23.784H142.056L142.12 24.4C142.4 23.976 142.784 23.688 143.336 23.688C143.856 23.688 144.24 23.968 144.4 24.448C144.704 23.992 145.088 23.688 145.656 23.688ZM150.885 27.016C150.885 27.384 151.021 27.504 151.237 27.584L151.069 28.096C150.645 28.048 150.373 27.88 150.245 27.464C149.949 27.904 149.501 28.096 148.989 28.096C148.149 28.096 147.645 27.576 147.645 26.824C147.645 25.92 148.325 25.432 149.501 25.432H150.149V25.12C150.149 24.512 149.853 24.288 149.269 24.288C148.957 24.288 148.565 24.368 148.133 24.512L147.949 23.976C148.469 23.784 148.933 23.688 149.405 23.688C150.421 23.688 150.885 24.208 150.885 25.088V27.016ZM149.157 27.544C149.589 27.544 149.909 27.328 150.149 26.888V25.92H149.597C148.821 25.92 148.429 26.208 148.429 26.784C148.429 27.28 148.677 27.544 149.157 27.544ZM153.006 28.096C152.47 28.096 152.126 27.768 152.126 27.168V22.088L152.862 22V27.152C152.862 27.376 152.934 27.488 153.126 27.488C153.23 27.488 153.318 27.472 153.398 27.44L153.59 27.952C153.43 28.04 153.222 28.096 153.006 28.096ZM157.147 22.488V27.336H159.411L159.323 28H156.387V22.488H157.147ZM160.508 21.76C160.82 21.76 161.028 21.976 161.028 22.264C161.028 22.544 160.82 22.76 160.508 22.76C160.204 22.76 159.996 22.544 159.996 22.264C159.996 21.976 160.204 21.76 160.508 21.76ZM160.884 23.784V28H160.148V23.784H160.884ZM165.319 23.784L163.887 28H162.999L161.543 23.784H162.343L163.447 27.344L164.543 23.784H165.319ZM166.336 21.76C166.648 21.76 166.856 21.976 166.856 22.264C166.856 22.544 166.648 22.76 166.336 22.76C166.032 22.76 165.824 22.544 165.824 22.264C165.824 21.976 166.032 21.76 166.336 21.76ZM166.712 23.784V28H165.976V23.784H166.712ZM170.011 23.688C170.787 23.688 171.235 24.176 171.235 24.976V28H170.499V25.08C170.499 24.448 170.243 24.264 169.835 24.264C169.363 24.264 169.043 24.56 168.763 25.008V28H168.027V23.784H168.659L168.723 24.408C169.011 23.976 169.459 23.688 170.011 23.688ZM175.708 23.312L175.924 23.976C175.572 24.088 175.172 24.104 174.692 24.104C175.188 24.328 175.436 24.68 175.436 25.168C175.436 26 174.836 26.6 173.828 26.6C173.636 26.6 173.468 26.576 173.292 26.52C173.172 26.608 173.084 26.76 173.084 26.912C173.084 27.104 173.204 27.256 173.636 27.256H174.308C175.172 27.256 175.748 27.752 175.748 28.424C175.748 29.24 175.076 29.704 173.772 29.704C172.396 29.704 171.964 29.28 171.964 28.424H172.628C172.628 28.904 172.844 29.128 173.772 29.128C174.684 29.128 175.004 28.896 175.004 28.472C175.004 28.072 174.684 27.872 174.156 27.872H173.492C172.74 27.872 172.404 27.496 172.404 27.072C172.404 26.8 172.564 26.528 172.868 26.328C172.38 26.072 172.156 25.704 172.156 25.16C172.156 24.296 172.852 23.688 173.78 23.688C174.828 23.712 175.212 23.536 175.708 23.312ZM173.78 24.216C173.212 24.216 172.908 24.608 172.908 25.16C172.908 25.72 173.22 26.112 173.796 26.112C174.372 26.112 174.684 25.76 174.684 25.152C174.684 24.536 174.38 24.216 173.78 24.216ZM179.877 22.392C180.637 22.392 181.117 22.616 181.581 23.032L181.165 23.496C180.749 23.16 180.365 23.016 179.909 23.016C179.357 23.016 178.917 23.272 178.917 23.8C178.917 24.264 179.133 24.488 180.125 24.792C181.005 25.064 181.757 25.408 181.757 26.464C181.757 27.424 181.029 28.096 179.789 28.096C178.997 28.096 178.373 27.832 177.917 27.384L178.333 26.92C178.749 27.256 179.181 27.472 179.781 27.472C180.429 27.472 180.965 27.152 180.965 26.488C180.965 25.952 180.709 25.712 179.773 25.424C178.701 25.096 178.141 24.688 178.141 23.832C178.141 22.984 178.861 22.392 179.877 22.392ZM184.589 23.688C185.709 23.688 186.149 24.56 186.149 25.888C186.149 27.168 185.581 28.096 184.493 28.096C184.037 28.096 183.661 27.944 183.389 27.616V29.616L182.653 29.704V23.784H183.285L183.341 24.352C183.653 23.92 184.109 23.688 184.589 23.688ZM184.317 27.496C184.989 27.496 185.357 26.992 185.357 25.888C185.357 24.792 185.037 24.272 184.405 24.272C183.957 24.272 183.613 24.592 183.389 24.928V26.984C183.605 27.312 183.933 27.496 184.317 27.496ZM189.965 27.016C189.965 27.384 190.101 27.504 190.317 27.584L190.149 28.096C189.725 28.048 189.453 27.88 189.325 27.464C189.029 27.904 188.581 28.096 188.069 28.096C187.229 28.096 186.725 27.576 186.725 26.824C186.725 25.92 187.405 25.432 188.581 25.432H189.229V25.12C189.229 24.512 188.933 24.288 188.349 24.288C188.037 24.288 187.645 24.368 187.213 24.512L187.029 23.976C187.549 23.784 188.013 23.688 188.485 23.688C189.501 23.688 189.965 24.208 189.965 25.088V27.016ZM188.237 27.544C188.669 27.544 188.989 27.328 189.229 26.888V25.92H188.677C187.901 25.92 187.509 26.208 187.509 26.784C187.509 27.28 187.757 27.544 188.237 27.544ZM192.854 23.688C193.35 23.688 193.75 23.816 194.142 24.144L193.79 24.608C193.502 24.4 193.238 24.296 192.886 24.296C192.222 24.296 191.806 24.816 191.806 25.912C191.806 27.016 192.222 27.472 192.886 27.472C193.238 27.472 193.486 27.36 193.806 27.152L194.142 27.632C193.766 27.936 193.342 28.096 192.854 28.096C191.718 28.096 191.014 27.288 191.014 25.928C191.014 24.584 191.71 23.688 192.854 23.688ZM198.045 25.768C198.045 25.912 198.037 26.048 198.029 26.144H195.341C195.413 27.12 195.869 27.496 196.477 27.496C196.893 27.496 197.205 27.384 197.573 27.128L197.893 27.568C197.477 27.896 197.005 28.096 196.421 28.096C195.245 28.096 194.557 27.272 194.557 25.936C194.557 24.624 195.221 23.688 196.309 23.688C197.445 23.688 198.045 24.48 198.045 25.768ZM197.317 25.6V25.552C197.317 24.728 196.989 24.272 196.325 24.272C195.765 24.272 195.397 24.664 195.341 25.6H197.317ZM202.409 22.392C203.169 22.392 203.649 22.616 204.113 23.032L203.697 23.496C203.281 23.16 202.897 23.016 202.441 23.016C201.889 23.016 201.449 23.272 201.449 23.8C201.449 24.264 201.665 24.488 202.657 24.792C203.537 25.064 204.289 25.408 204.289 26.464C204.289 27.424 203.561 28.096 202.321 28.096C201.529 28.096 200.905 27.832 200.449 27.384L200.865 26.92C201.281 27.256 201.713 27.472 202.313 27.472C202.961 27.472 203.497 27.152 203.497 26.488C203.497 25.952 203.241 25.712 202.305 25.424C201.233 25.096 200.673 24.688 200.673 23.832C200.673 22.984 201.393 22.392 202.409 22.392ZM208.266 23.784L206.858 28.024C206.562 28.92 206.066 29.576 204.898 29.704L204.818 29.128C205.674 28.984 205.914 28.656 206.154 28H205.906L204.49 23.784H205.274L206.402 27.464L207.506 23.784H208.266ZM210.036 23.688C210.628 23.688 211.068 23.864 211.468 24.168L211.156 24.632C210.78 24.392 210.452 24.272 210.06 24.272C209.58 24.272 209.284 24.488 209.284 24.824C209.284 25.168 209.508 25.328 210.188 25.504C211.076 25.728 211.588 26.08 211.588 26.816C211.588 27.696 210.78 28.096 209.924 28.096C209.212 28.096 208.7 27.864 208.332 27.544L208.724 27.096C209.06 27.352 209.452 27.504 209.908 27.504C210.46 27.504 210.812 27.264 210.812 26.864C210.812 26.448 210.604 26.288 209.788 26.072C208.876 25.832 208.516 25.44 208.516 24.848C208.516 24.176 209.164 23.688 210.036 23.688ZM214.315 27.32L214.595 27.808C214.315 28 214.011 28.096 213.651 28.096C212.939 28.096 212.515 27.68 212.515 26.896V24.352H211.779V23.784H212.515V22.832L213.251 22.744V23.784H214.251L214.171 24.352H213.251V26.864C213.251 27.288 213.387 27.488 213.755 27.488C213.939 27.488 214.107 27.432 214.315 27.32ZM218.264 25.768C218.264 25.912 218.256 26.048 218.248 26.144H215.56C215.632 27.12 216.088 27.496 216.696 27.496C217.112 27.496 217.424 27.384 217.792 27.128L218.112 27.568C217.696 27.896 217.224 28.096 216.64 28.096C215.464 28.096 214.776 27.272 214.776 25.936C214.776 24.624 215.44 23.688 216.528 23.688C217.664 23.688 218.264 24.48 218.264 25.768ZM217.536 25.6V25.552C217.536 24.728 217.208 24.272 216.544 24.272C215.984 24.272 215.616 24.664 215.56 25.6H217.536ZM223.48 23.688C224.168 23.688 224.624 24.184 224.624 24.976V28H223.888V25.08C223.888 24.448 223.616 24.264 223.296 24.264C222.84 24.264 222.592 24.56 222.304 25.008V28H221.568V25.08C221.568 24.448 221.296 24.264 220.976 24.264C220.52 24.264 220.264 24.56 219.984 25.008V28H219.248V23.784H219.88L219.944 24.4C220.224 23.976 220.608 23.688 221.16 23.688C221.68 23.688 222.064 23.968 222.224 24.448C222.528 23.992 222.912 23.688 223.48 23.688ZM227.053 23.688C227.645 23.688 228.085 23.864 228.485 24.168L228.173 24.632C227.797 24.392 227.469 24.272 227.077 24.272C226.597 24.272 226.301 24.488 226.301 24.824C226.301 25.168 226.525 25.328 227.205 25.504C228.093 25.728 228.605 26.08 228.605 26.816C228.605 27.696 227.797 28.096 226.941 28.096C226.229 28.096 225.717 27.864 225.349 27.544L225.741 27.096C226.077 27.352 226.469 27.504 226.925 27.504C227.477 27.504 227.829 27.264 227.829 26.864C227.829 26.448 227.621 26.288 226.805 26.072C225.893 25.832 225.533 25.44 225.533 24.848C225.533 24.176 226.181 23.688 227.053 23.688ZM128.16 32.392C128.92 32.392 129.4 32.616 129.864 33.032L129.448 33.496C129.032 33.16 128.648 33.016 128.192 33.016C127.64 33.016 127.2 33.272 127.2 33.8C127.2 34.264 127.416 34.488 128.408 34.792C129.288 35.064 130.04 35.408 130.04 36.464C130.04 37.424 129.312 38.096 128.072 38.096C127.28 38.096 126.656 37.832 126.2 37.384L126.616 36.92C127.032 37.256 127.464 37.472 128.064 37.472C128.712 37.472 129.248 37.152 129.248 36.488C129.248 35.952 128.992 35.712 128.056 35.424C126.984 35.096 126.424 34.688 126.424 33.832C126.424 32.984 127.144 32.392 128.16 32.392ZM131.759 32.488V38H130.999V32.488H131.759ZM137.063 32.488V38H136.047L133.807 33.32C133.847 33.776 133.911 34.448 133.911 35.472V38H133.199V32.488H134.191L136.455 37.176C136.439 37.048 136.351 36.168 136.351 35.496V32.488H137.063ZM140.428 32.392C141.124 32.392 141.516 32.584 141.956 32.936L141.54 33.424C141.196 33.144 140.86 33.016 140.476 33.016C139.644 33.016 138.948 33.576 138.948 35.24C138.948 36.832 139.612 37.456 140.468 37.456C140.988 37.456 141.332 37.232 141.644 37L142.02 37.48C141.716 37.792 141.188 38.096 140.444 38.096C139.108 38.096 138.14 37.096 138.14 35.24C138.14 33.376 139.18 32.392 140.428 32.392ZM145.8 32.488L145.712 33.096H143.576V34.896H145.432V35.504H143.576V37.392H145.864V38H142.816V32.488H145.8ZM149.919 32.568C150.903 32.568 151.527 33.2 151.527 34.032C151.527 35.032 150.887 35.744 149.247 37.384H151.655L151.567 38H148.407V37.416C150.295 35.448 150.759 34.936 150.759 34.064C150.759 33.504 150.399 33.176 149.879 33.176C149.431 33.176 149.135 33.352 148.775 33.76L148.295 33.376C148.727 32.84 149.247 32.568 149.919 32.568ZM154.128 32.568C155.328 32.568 155.92 33.56 155.92 35.328C155.92 37.104 155.328 38.096 154.128 38.096C152.928 38.096 152.336 37.104 152.336 35.328C152.336 33.552 152.928 32.568 154.128 32.568ZM154.128 33.152C153.456 33.152 153.104 33.76 153.104 35.328C153.104 36.904 153.456 37.512 154.128 37.512C154.792 37.512 155.152 36.904 155.152 35.328C155.152 33.76 154.792 33.152 154.128 33.152ZM158.577 32.648V38H157.841V33.432L156.593 34.192L156.273 33.672L157.929 32.648H158.577ZM162.758 32.648L162.654 33.224H160.566V34.8C160.846 34.656 161.134 34.592 161.422 34.592C162.326 34.592 162.942 35.224 162.942 36.288C162.942 37.352 162.198 38.096 161.086 38.096C160.406 38.096 159.918 37.84 159.502 37.416L159.934 36.992C160.27 37.328 160.614 37.496 161.078 37.496C161.75 37.496 162.174 37.056 162.174 36.272C162.174 35.448 161.75 35.16 161.198 35.16C160.91 35.16 160.694 35.224 160.438 35.344H159.862V32.648H162.758Z" fill="#333333"/>
<path d="M0 7.47841V18.0553L34.9703 10.5827V0L0 7.47841Z" fill="url(#paint0_linear_1411_59)"/>
<path d="M34.9707 0V10.587L106 25.7504V15.1692L34.9707 0Z" fill="url(#paint1_linear_1411_59)"/>
<path d="M24.0284 36.0261C21.732 38.2736 18.0798 38.2736 15.7835 36.0261C14.2444 34.474 14.2833 32.548 14.2833 29.8977C14.2833 27.2473 14.2401 25.3213 15.7835 23.759C18.0827 21.5174 21.7306 21.5174 24.0284 23.759C25.5675 25.3155 25.5473 27.2371 25.5473 29.8977C25.5473 32.5582 25.5675 34.4842 24.0284 36.0261ZM21.82 25.5773C21.3354 25.0318 20.6358 24.7322 19.9103 24.7598C19.1804 24.7394 18.4765 25.0376 17.9803 25.5773C17.4033 26.2232 17.2519 26.9374 17.2519 29.8977C17.2519 32.8579 17.4033 33.5634 17.9803 34.218C19.0102 35.2872 20.705 35.3119 21.7652 34.2733C21.784 34.2558 21.8013 34.2369 21.82 34.218C22.397 33.5634 22.573 32.8535 22.573 29.8977C22.573 26.9418 22.397 26.2232 21.82 25.5773Z" fill="#333333"/>
<path d="M30.2417 37.5826C28.5714 37.7092 27.1145 36.4466 26.989 34.7621C26.989 34.7621 26.989 34.7606 26.989 34.7591C26.9789 34.6268 26.9789 34.4929 26.989 34.3606V22.2025H29.7787V34.1875C29.7787 34.8522 30.0571 35.2028 30.7552 35.2028H31.8255V37.5826H30.2431H30.2417Z" fill="#333333"/>
<path d="M32.7285 24.4092V22.124H35.5759V24.4092H32.7285ZM32.7675 37.5826V26.3308H35.5514V37.5826H32.7675Z" fill="#333333"/>
<path d="M41.0325 37.7107C39.2742 37.7107 37.6861 37.5143 36.2754 36.0902L38.103 34.2573C38.915 34.9992 39.9882 35.3803 41.083 35.3163C42.0595 35.3163 43.0375 34.9904 43.0375 34.1482C43.0375 33.5867 42.7346 33.2027 41.8547 33.1081L40.1007 32.935C38.0828 32.7386 36.8423 31.8513 36.8423 29.7828C36.8423 27.448 38.879 26.197 41.1508 26.197C42.8846 26.197 44.34 26.5025 45.4103 27.5179L43.6953 29.2664C42.9481 28.7136 42.0307 28.4459 41.1061 28.5128C39.9925 28.5128 39.518 29.006 39.518 29.5922C39.518 30.001 39.6896 30.4795 40.6763 30.577L42.4346 30.7545C44.6429 30.9669 45.7507 32.1539 45.7507 34.0551C45.7709 36.528 43.665 37.7107 41.0325 37.7107Z" fill="#333333"/>
<path d="M50.3528 37.7107C48.5945 37.7107 47.0122 37.5143 45.5957 36.0902L47.4175 34.2573C48.2281 34.9992 49.2999 35.3818 50.3918 35.3163C51.3683 35.3163 52.3463 34.9904 52.3463 34.1482C52.3463 33.5867 52.0434 33.2027 51.1693 33.1081L49.4109 32.935C47.3987 32.7386 46.1583 31.8513 46.1583 29.7828C46.1583 27.448 48.1906 26.197 50.4625 26.197C52.1963 26.197 53.6517 26.5025 54.722 27.5179L53.0069 29.2664C52.2597 28.7136 51.3424 28.4459 50.4178 28.5128C49.3042 28.5128 48.8296 29.006 48.8296 29.5922C48.8296 30.001 49.0056 30.4795 49.9879 30.577L51.7462 30.7545C53.9546 30.9669 55.0682 32.1539 55.0682 34.0551C55.0883 36.528 52.9867 37.7107 50.3543 37.7107H50.3528Z" fill="#333333"/>
<path d="M60.294 39.4097C60.1195 39.945 59.8353 40.4367 59.4588 40.8527C58.8097 41.4593 57.9443 41.772 57.0601 41.7197H55.971V39.1784H56.6115C57.2591 39.2933 57.8779 38.8569 57.9919 38.2038C57.9919 38.2008 57.9919 38.1965 57.9933 38.1936L58.4823 36.8146L54.6729 26.3657H57.6039L59.919 33.3219L62.1461 26.3657H65.0771L60.2955 39.4111L60.294 39.4097Z" fill="#333333"/>
<path d="M68.6659 37.7107C66.9076 37.7107 65.3252 37.5143 63.9131 36.0902L65.7306 34.2573C66.5412 34.9992 67.6129 35.3818 68.7048 35.3163C69.6814 35.3163 70.6593 34.9904 70.6593 34.1482C70.6593 33.5867 70.3608 33.2027 69.4823 33.1081L67.724 32.935C65.7118 32.7386 64.4713 31.8513 64.4713 29.7828C64.4713 27.448 66.508 26.197 68.7755 26.197C70.5151 26.197 71.9705 26.5025 73.035 27.5179L71.32 29.2664C70.5714 28.7121 69.6525 28.4445 68.7265 28.5128C67.6129 28.5128 67.1441 29.006 67.1441 29.5922C67.1441 30.001 67.3158 30.4795 68.2966 30.577L70.055 30.7545C72.2633 30.9669 73.3769 32.1539 73.3769 34.0551C73.4014 36.528 71.32 37.7107 68.6673 37.7107H68.6659Z" fill="#333333"/>
<path d="M76.7607 35.6174V37.5884H76.4145V35.6174H75.7842V35.3017H77.3911V35.6174H76.7607Z" fill="#333333"/>
<path d="M79.3831 37.6117V36.0698L78.8552 37.1986H78.597L78.059 36.0698V37.6117H77.707V35.3017H78.059L78.724 36.7345L79.3831 35.3017H79.725V37.6117H79.3831Z" fill="#333333"/>
<defs>
<linearGradient id="paint0_linear_1411_59" x1="-6.08562" y1="17.3585" x2="35.5861" y2="2.88015" gradientUnits="userSpaceOnUse">
<stop stop-color="#009FE3"/>
<stop offset="1" stop-color="#007CB0"/>
</linearGradient>
<linearGradient id="paint1_linear_1411_59" x1="27.372" y1="34.4129" x2="103.719" y2="-3.09043" gradientUnits="userSpaceOnUse">
<stop stop-color="#009FE3"/>
<stop offset="1" stop-color="#007CB0"/>
</linearGradient>
</defs>
</svg>
