<svg width="19" height="19" viewBox="0 0 19 19" fill="none" xmlns="http://www.w3.org/2000/svg">
<g id="_&#208;&#161;&#208;&#187;&#208;&#190;&#208;&#185;_1" clip-path="url(#clip0_1336_984)">
<path id="Vector" d="M9.50006 0C7.7469 0 6.28844 1.2445 6.04369 2.85H2.62729C2.58234 2.84525 2.54238 2.8405 2.49743 2.8405C2.46246 2.8405 2.42251 2.8405 2.38754 2.85H0.759257C0.344693 2.84525 0.00505076 3.15875 5.60155e-05 3.553C-0.00493873 3.94725 0.324714 4.27025 0.739278 4.275C0.744273 4.275 0.754262 4.275 0.759257 4.275H1.82813L3.08681 16.6392C3.22166 17.974 4.41541 19 5.81893 19H13.1812C14.5897 19 15.7784 17.974 15.9133 16.6392L17.172 4.275H18.2409C18.6554 4.27975 18.9951 3.96625 19.0001 3.572C19.0051 3.17775 18.6754 2.85475 18.2608 2.85C18.2558 2.85 18.2458 2.85 18.2409 2.85H16.6126C16.5327 2.83575 16.4527 2.83575 16.3728 2.85H12.9564C12.7117 1.2445 11.2532 0 9.50006 0ZM9.50006 1.425C10.4391 1.425 11.2083 2.02825 11.428 2.85H7.57209C7.79185 2.02825 8.56104 1.425 9.50006 1.425ZM3.33155 4.275H15.6686L14.4249 16.5015C14.3599 17.119 13.8305 17.575 13.1812 17.575H5.81893C5.16961 17.575 4.64017 17.1143 4.57524 16.5015L3.33155 4.275ZM7.74191 6.6405C7.32734 6.64525 6.99769 6.96825 7.00269 7.3625V14.4875C6.99769 14.8818 7.32734 15.2048 7.74191 15.2095C8.15647 15.2142 8.49611 14.9008 8.50111 14.5065C8.50111 14.5017 8.50111 14.4922 8.50111 14.4875V7.3625C8.5061 6.96825 8.17645 6.64525 7.76189 6.6405C7.75689 6.6405 7.7469 6.6405 7.74191 6.6405ZM11.2382 6.6405C10.8237 6.64525 10.494 6.96825 10.499 7.3625V14.4875C10.494 14.8818 10.8237 15.2048 11.2382 15.2095C11.6528 15.2142 11.9924 14.9008 11.9974 14.5065C11.9974 14.5017 11.9974 14.4922 11.9974 14.4875V7.3625C12.0024 6.96825 11.6728 6.64525 11.2582 6.6405C11.2532 6.6405 11.2432 6.6405 11.2382 6.6405Z" fill="#333333"/>
</g>
<defs>
<clipPath id="clip0_1336_984">
<rect width="19" height="19" fill="white"/>
</clipPath>
</defs>
</svg>
