<svg width="10" height="18" viewBox="0 0 10 18" fill="none" xmlns="http://www.w3.org/2000/svg">
<path d="M4.58333 17.3333C3.30556 17.3333 2.22222 16.8889 1.33333 16C0.444444 15.1111 0 14.0278 0 12.75V4C0 3.08333 0.326389 2.29861 0.979167 1.64583C1.63194 0.993055 2.41667 0.666666 3.33333 0.666666C4.25 0.666666 5.03472 0.993055 5.6875 1.64583C6.34028 2.29861 6.66667 3.08333 6.66667 4V11.9167C6.66667 12.5 6.46528 12.9931 6.0625 13.3958C5.65972 13.7986 5.16667 14 4.58333 14C4 14 3.50694 13.7986 3.10417 13.3958C2.70139 12.9931 2.5 12.5 2.5 11.9167V4H3.75V11.9167C3.75 12.1528 3.82986 12.3507 3.98958 12.5104C4.14931 12.6701 4.34722 12.75 4.58333 12.75C4.81944 12.75 5.01736 12.6701 5.17708 12.5104C5.33681 12.3507 5.41667 12.1528 5.41667 11.9167V4C5.41667 3.41667 5.21528 2.92361 4.8125 2.52083C4.40972 2.11805 3.91667 1.91667 3.33333 1.91667C2.75 1.91667 2.25694 2.11805 1.85417 2.52083C1.45139 2.92361 1.25 3.41667 1.25 4V12.75C1.25 13.6667 1.57639 14.4514 2.22917 15.1042C2.88194 15.7569 3.66667 16.0833 4.58333 16.0833C5.5 16.0833 6.28472 15.7569 6.9375 15.1042C7.59028 14.4514 7.91667 13.6667 7.91667 12.75V4H9.16667V12.75C9.16667 14.0278 8.72222 15.1111 7.83333 16C6.94444 16.8889 5.86111 17.3333 4.58333 17.3333Z" fill="#009FE3"/>
</svg>
