<svg width="24" height="26" viewBox="0 0 24 26" fill="none" xmlns="http://www.w3.org/2000/svg">
<path d="M12.0001 0C9.78556 0 7.94329 1.703 7.63414 3.9H3.31868C3.2619 3.8935 3.21143 3.887 3.15464 3.887C3.11048 3.887 3.06001 3.887 3.01584 3.9H0.959061C0.435402 3.8935 0.0063799 4.3225 7.07564e-05 4.862C-0.00623839 5.4015 0.410165 5.8435 0.933825 5.85C0.940134 5.85 0.952752 5.85 0.959061 5.85H2.30922L3.89912 22.7695C4.06947 24.596 5.57736 26 7.35023 26H16.6499C18.4291 26 19.9307 24.596 20.101 22.7695L21.6909 5.85H23.0411C23.5647 5.8565 23.9938 5.4275 24.0001 4.888C24.0064 4.3485 23.59 3.9065 23.0663 3.9C23.06 3.9 23.0474 3.9 23.0411 3.9H20.9843C20.8833 3.8805 20.7824 3.8805 20.6815 3.9H16.366C16.0569 1.703 14.2146 0 12.0001 0ZM12.0001 1.95C13.1862 1.95 14.1578 2.7755 14.4354 3.9H9.56474C9.84234 2.7755 10.814 1.95 12.0001 1.95ZM4.20827 5.85H19.7919L18.2209 22.581C18.1389 23.426 17.4701 24.05 16.6499 24.05H7.35023C6.53004 24.05 5.86127 23.4195 5.77925 22.581L4.20827 5.85ZM9.77925 9.087C9.25559 9.0935 8.83919 9.5355 8.8455 10.075V19.825C8.83919 20.3645 9.25559 20.8065 9.77925 20.813C10.3029 20.8195 10.7319 20.3905 10.7382 19.851C10.7382 19.8445 10.7382 19.8315 10.7382 19.825V10.075C10.7446 9.5355 10.3281 9.0935 9.80449 9.087C9.79818 9.087 9.78556 9.087 9.77925 9.087ZM14.1957 9.087C13.672 9.0935 13.2556 9.5355 13.2619 10.075V19.825C13.2556 20.3645 13.672 20.8065 14.1957 20.813C14.7193 20.8195 15.1483 20.3905 15.1546 19.851C15.1546 19.8445 15.1546 19.8315 15.1546 19.825V10.075C15.161 9.5355 14.7446 9.0935 14.2209 9.087C14.2146 9.087 14.202 9.087 14.1957 9.087Z" fill="black"/>
</svg>
