<svg width="43" height="42" viewBox="0 0 43 42" fill="none" xmlns="http://www.w3.org/2000/svg">
<path fill-rule="evenodd" clip-rule="evenodd" d="M41.998 21.4723C42.027 20.0299 41.8604 18.5911 41.538 17.1777H21.4326V24.9515H33.2241C32.9778 26.9085 31.7026 29.7897 28.8517 31.7467V36.8821H35.615C39.6361 33.2399 41.998 27.858 41.998 21.4723Z" fill="#4285F4"/>
<path fill-rule="evenodd" clip-rule="evenodd" d="M21.4317 41.9958C27.2206 41.9958 32.0531 40.1185 35.6141 36.9148L28.8507 31.7758C27.0575 33.0261 24.6123 33.8959 21.4317 33.8959C15.9145 33.8959 11.024 30.3913 9.23079 25.1726H2.30078V30.4457C6.0248 37.5381 13.3859 42.0248 21.428 41.9994L21.4317 41.9958Z" fill="#34A853"/>
<path fill-rule="evenodd" clip-rule="evenodd" d="M9.23125 25.1435C8.3075 22.4507 8.3075 19.5442 9.23125 16.8515V11.5784H2.30125C-0.767083 17.4821 -0.767083 24.5129 2.30125 30.4166L9.23125 25.1435Z" fill="#FBBC04"/>
<path fill-rule="evenodd" clip-rule="evenodd" d="M21.4317 8.12902C25.4527 8.12902 28.1407 9.83961 29.6912 11.2566L35.7481 5.49428C32.0531 2.09123 27.2169 0.00010771 21.4317 0.00010771C13.3895 -0.0252612 6.0248 4.43241 2.30078 11.5792L9.23079 16.8523C11.024 11.6336 15.9145 8.12902 21.4317 8.12902Z" fill="#EA4335"/>
</svg>
