<svg width="46" height="46" viewBox="0 0 46 46" fill="none" xmlns="http://www.w3.org/2000/svg">
<path d="M23.0001 0.600098C10.6241 0.600098 0.600098 10.6241 0.600098 23.0001C0.600098 35.3761 10.6241 45.4001 23.0001 45.4001C35.3761 45.4001 45.4001 35.3761 45.4001 23.0001C45.4001 10.6241 35.3761 0.600098 23.0001 0.600098ZM23.0001 2.7421C24.6101 2.7421 25.9121 4.0441 25.9121 5.6541C25.9121 7.2641 24.6101 8.5661 23.0001 8.5661C21.3901 8.5661 20.0881 7.2641 20.0881 5.6541C20.0881 4.0441 21.3901 2.7421 23.0001 2.7421ZM23.0141 36.5241C15.5521 36.5241 9.4901 30.4761 9.4901 23.0001C9.4901 15.5241 14.9501 10.0921 21.8941 9.5321L22.2581 18.4081C20.0461 18.7721 18.3521 20.6901 18.3521 23.0001C18.3521 25.5761 20.4381 27.6481 23.0001 27.6481C25.5621 27.6481 27.6481 25.5621 27.6481 23.0001C27.6481 20.6901 25.9541 18.7581 23.7421 18.4081L24.1061 9.5321C31.0501 10.0921 36.5101 15.9161 36.5101 23.0141C36.5101 30.4761 30.4621 36.5381 22.9861 36.5381L23.0141 36.5241Z" fill="white"/>
</svg>
