<svg width="236" height="136" viewBox="0 0 236 136" fill="none" xmlns="http://www.w3.org/2000/svg">
<g clip-path="url(#clip0_606_1601)">
<path d="M0 16.6498V40.1979L77.8574 23.5611V0L0 16.6498Z" fill="url(#paint0_linear_606_1601)"/>
<path d="M77.8574 0V23.5708L235.997 57.3303V33.7725L77.8574 0Z" fill="url(#paint1_linear_606_1601)"/>
<path d="M36.9762 127.369C37.4065 127.547 37.8047 127.8 38.1516 128.114L37.4996 128.839C37.217 128.609 36.9023 128.422 36.5651 128.279C36.2504 128.156 35.9132 128.098 35.576 128.104C35.1906 128.094 34.8085 128.205 34.4873 128.422C34.2079 128.639 34.0506 128.979 34.0634 129.332C34.0474 129.549 34.0955 129.769 34.2047 129.957C34.3428 130.154 34.5291 130.313 34.7475 130.417C35.12 130.604 35.5086 130.753 35.91 130.867C36.3692 130.996 36.8156 131.178 37.2363 131.404C37.5799 131.592 37.8754 131.858 38.097 132.182C38.3314 132.567 38.4406 133.014 38.4117 133.464C38.4245 133.927 38.2993 134.381 38.052 134.769C37.7822 135.168 37.4065 135.482 36.9633 135.67C36.4559 135.9 35.9004 136.013 35.3416 136C34.2754 136.032 33.2381 135.637 32.4609 134.902L33.1032 134.177C33.4372 134.436 33.8001 134.649 34.1919 134.811C34.5676 134.957 34.9658 135.028 35.3673 135.019C35.8329 135.035 36.2889 134.899 36.6711 134.633C37.0051 134.371 37.1978 133.963 37.1946 133.535C37.201 133.293 37.1464 133.05 37.0308 132.833C36.8927 132.625 36.7064 132.454 36.488 132.34C36.1412 132.156 35.7783 132.004 35.3994 131.89C34.7025 131.715 34.0506 131.385 33.495 130.925C33.084 130.533 32.8592 129.983 32.8848 129.413C32.8881 129.021 33.0069 128.642 33.222 128.315C33.4565 127.965 33.784 127.686 34.1694 127.515C34.6062 127.311 35.0814 127.214 35.5599 127.23C36.0352 127.181 36.5169 127.227 36.973 127.363L36.9762 127.369Z" fill="#333333"/>
<path d="M41.0869 127.282V135.835H39.9019V127.282H41.0869Z" fill="#333333"/>
<path d="M49.1669 135.835H47.6126L44.1636 128.564C44.1636 129.144 44.2503 129.662 44.2727 130.154C44.2952 130.647 44.2727 131.252 44.2727 131.91V135.835H43.1841V127.282H44.7063L48.1971 134.565C48.1971 134.345 48.1329 133.973 48.1007 133.467C48.0686 132.962 48.0365 132.437 48.0365 131.997V127.324H49.1252L49.1701 135.835H49.1669Z" fill="#333333"/>
<path d="M55.6603 127.337C56.0553 127.489 56.4246 127.706 56.7489 127.984L56.097 128.742C55.6442 128.347 55.0661 128.12 54.4656 128.107C53.7976 128.088 53.1618 128.396 52.7571 128.93C51.8997 130.566 51.8997 132.525 52.7571 134.16C53.1489 134.708 53.7848 135.025 54.4528 135.006C54.7803 135.006 55.1079 134.944 55.4098 134.818C55.7084 134.666 55.9975 134.491 56.2704 134.29L56.8581 135.035C56.5659 135.326 56.2255 135.563 55.8465 135.725C55.3809 135.922 54.8831 136.013 54.3789 136C53.0301 136.036 51.7969 135.229 51.2799 133.969C50.6697 132.428 50.6697 130.708 51.2799 129.166C51.5496 128.548 51.9928 128.023 52.5516 127.654C53.0847 127.324 53.6981 127.149 54.3243 127.149C54.7771 127.11 55.2364 127.171 55.6635 127.337H55.6603Z" fill="#333333"/>
<path d="M62.7096 127.282L62.5683 128.237H59.3055V131.035H62.1669V131.978H59.2862V134.905H62.8091V135.848H58.1108V127.295L62.7096 127.285V127.282Z" fill="#333333"/>
<path d="M70.0925 127.709C70.8279 128.088 71.2872 128.852 71.2775 129.685C71.2775 130.187 71.1619 130.682 70.9403 131.132C70.6449 131.676 70.2788 132.178 69.8517 132.625C69.3828 133.163 68.6763 133.921 67.6775 134.818H71.3867L71.2454 135.783H66.47V134.905C67.5587 133.807 68.3519 132.91 68.8079 132.373C69.1901 131.945 69.5241 131.472 69.7971 130.97C69.9897 130.575 70.0925 130.138 70.0893 129.698C70.1439 128.998 69.6269 128.383 68.9332 128.328H68.9268H68.7309C68.4194 128.315 68.1111 128.386 67.8381 128.535C67.533 128.726 67.2568 128.962 67.0224 129.238L66.3384 128.658C66.6306 128.269 66.9999 127.946 67.427 127.716C67.8574 127.502 68.3294 127.392 68.8079 127.398C69.2543 127.395 69.6975 127.502 70.0925 127.716V127.709Z" fill="#333333"/>
<path d="M77.3373 128.509C78.2719 130.527 78.2719 132.862 77.3373 134.883C76.5762 136.029 75.0348 136.337 73.8979 135.566C73.8979 135.566 73.8947 135.563 73.8915 135.56C73.6282 135.375 73.4002 135.145 73.2171 134.879C72.2922 132.859 72.2922 130.53 73.2171 128.506C73.9943 127.356 75.5454 127.058 76.6854 127.835C76.9488 128.01 77.1703 128.237 77.3373 128.506V128.509ZM74.0745 129.102C73.763 129.928 73.6346 130.808 73.6924 131.689C73.6378 132.57 73.7663 133.451 74.0745 134.277C74.3347 134.928 75.0701 135.245 75.7156 134.983C75.7252 134.98 75.7381 134.973 75.7477 134.97C76.0592 134.841 76.3097 134.591 76.4446 134.28C76.9552 132.593 76.9552 130.789 76.4446 129.105C76.1748 128.444 75.4233 128.13 74.7682 128.402C74.4631 128.541 74.2223 128.791 74.0938 129.105H74.0713L74.0745 129.102Z" fill="#333333"/>
<path d="M82.5336 127.531V135.835H81.445V128.739L79.5213 129.911L79.0332 129.098L81.567 127.518L82.5336 127.528V127.531Z" fill="#333333"/>
<path d="M88.831 128.422H85.5682V130.867C85.9761 130.656 86.4256 130.543 86.8849 130.536C87.5239 130.507 88.147 130.763 88.5805 131.239C89.0333 131.78 89.2613 132.473 89.2228 133.179C89.2356 133.688 89.1104 134.193 88.8631 134.637C88.6255 135.054 88.2786 135.398 87.8611 135.634C87.3955 135.87 86.8817 135.99 86.3614 135.984C85.9022 135.99 85.4462 135.9 85.0223 135.721C84.6112 135.534 84.2419 135.265 83.9336 134.931L84.5984 134.274C84.8328 134.517 85.109 134.714 85.4141 134.854C85.7127 134.993 86.0435 135.054 86.3711 135.041C86.8335 135.061 87.2863 134.883 87.6107 134.549C87.9382 134.157 88.1116 133.658 88.0892 133.147C88.1309 132.674 87.9832 132.204 87.6749 131.842C87.3859 131.557 86.9909 131.408 86.5862 131.424C86.3839 131.424 86.1848 131.446 85.9889 131.489C85.7898 131.537 85.5971 131.605 85.4141 131.696H84.5213V127.518H88.9787L88.8278 128.418L88.831 128.422Z" fill="#333333"/>
<path d="M38.2158 107.549C38.7939 107.94 39.2467 108.494 39.5197 109.139C39.8568 109.935 40.0206 110.797 39.9982 111.662C40.0206 112.52 39.8568 113.375 39.5197 114.162C38.9833 115.49 37.6795 116.341 36.2569 116.29C35.5632 116.312 34.876 116.124 34.2883 115.752C33.7006 115.376 33.2413 114.829 32.9716 114.185C32.3422 112.575 32.3422 110.784 32.9716 109.171C33.2478 108.514 33.7102 107.957 34.2979 107.558C34.8824 107.186 35.5632 106.995 36.2569 107.011C36.9473 107.004 37.6249 107.189 38.2158 107.549ZM34.4296 108.909C33.9382 109.741 33.7166 110.706 33.7873 111.671C33.7134 112.63 33.9382 113.589 34.4296 114.414C34.8567 114.981 35.5279 115.305 36.2344 115.282C37.8658 115.282 38.6815 114.074 38.6815 111.662C38.6815 109.249 37.8658 108.041 36.2344 108.031C35.5247 107.996 34.8438 108.326 34.4296 108.909Z" fill="#333333"/>
<path d="M46.6553 110.062C47.1049 110.865 47.3169 111.785 47.2655 112.705C47.3169 113.621 47.0728 114.528 46.5686 115.292C46.119 115.94 45.3708 116.306 44.5904 116.257C43.9096 116.296 43.248 116.014 42.8081 115.49V118.78L41.623 118.913V109.272H42.6346L42.7213 110.204C42.9526 109.867 43.2641 109.592 43.6238 109.404C43.9577 109.223 44.3303 109.129 44.7124 109.129C45.4832 109.048 46.2346 109.408 46.6585 110.062H46.6553ZM45.9906 112.705C45.9906 110.949 45.4799 110.071 44.4587 110.071C44.1247 110.071 43.8004 110.178 43.5338 110.379C43.248 110.586 43.0072 110.849 42.8145 111.147V114.502C42.9847 114.777 43.2191 115.004 43.4985 115.159C43.7618 115.302 44.0573 115.376 44.3592 115.38C45.4125 115.325 45.9906 114.447 45.9906 112.705Z" fill="#333333"/>
<path d="M52.529 115.82C52.0826 116.134 51.5495 116.296 51.0068 116.293C50.509 116.329 50.0177 116.15 49.658 115.801C49.3144 115.402 49.1378 114.881 49.1699 114.353V110.208H47.9849V109.275H49.1699V107.727L50.3677 107.594V109.272H51.9766L51.845 110.204H50.3645V114.285C50.3324 114.557 50.3966 114.836 50.5508 115.062C50.7081 115.237 50.9394 115.325 51.1706 115.292C51.4885 115.279 51.8 115.185 52.073 115.017L52.529 115.817V115.82Z" fill="#333333"/>
<path d="M54.7901 106.234C54.9443 106.386 55.031 106.596 55.031 106.813C55.0406 107.034 54.9539 107.247 54.7901 107.393C54.6231 107.542 54.4047 107.62 54.18 107.613C53.9648 107.62 53.7528 107.542 53.5923 107.393C53.4381 107.238 53.3546 107.03 53.3514 106.813C53.345 106.593 53.4317 106.383 53.5923 106.234C53.7464 106.078 53.9584 105.991 54.18 105.991C54.408 105.978 54.6295 106.065 54.7901 106.234ZM54.7901 109.272V116.137H53.6051V109.272H54.7901Z" fill="#333333"/>
<path d="M64.9605 109.676C65.3169 110.101 65.5 110.645 65.4711 111.202V116.128H64.2732V111.38C64.2732 110.492 63.9585 110.052 63.3259 110.052C63.0144 110.039 62.7061 110.146 62.4652 110.347C62.1698 110.612 61.9193 110.923 61.7266 111.267V116.137H60.5416V111.39C60.5416 110.502 60.214 110.062 59.5846 110.062C59.2667 110.059 58.9584 110.165 58.7143 110.369C58.4285 110.635 58.1812 110.943 57.9853 111.279V116.15H56.8003V109.307H57.8119L57.9082 110.305C58.3129 109.595 59.0547 109.155 59.8672 109.142C60.654 109.106 61.3669 109.618 61.5853 110.382C61.8197 110.02 62.1184 109.706 62.4652 109.45C62.812 109.242 63.2071 109.136 63.6085 109.142C64.1159 109.113 64.6072 109.31 64.9573 109.68L64.9605 109.676Z" fill="#333333"/>
<path d="M72.2023 115.159C72.3083 115.302 72.456 115.406 72.6262 115.454L72.3532 116.286C72.0449 116.267 71.7495 116.163 71.4926 115.992C71.2646 115.804 71.0976 115.551 71.0141 115.266C70.5645 115.946 69.7905 116.335 68.9813 116.286C68.3936 116.322 67.8155 116.118 67.382 115.716C66.5663 114.829 66.6177 113.44 67.5008 112.617C67.5265 112.594 67.5522 112.568 67.5779 112.546C68.2266 112.128 68.9845 111.921 69.752 111.953H70.8407V111.448C70.8953 111.05 70.7668 110.645 70.4938 110.35C70.1823 110.117 69.7937 110.007 69.4052 110.042C68.7822 110.062 68.1624 110.185 67.5779 110.405L67.2728 109.527C68.0275 109.236 68.8239 109.077 69.6332 109.055C70.2851 108.999 70.9306 109.207 71.4284 109.634C71.8458 110.091 72.0578 110.703 72.016 111.325V114.463C72.0128 114.706 72.0771 114.946 72.2023 115.153V115.159ZM70.876 114.327V112.747H69.9832C68.734 112.747 68.1013 113.219 68.1013 114.149C68.0821 114.483 68.1913 114.813 68.4064 115.069C68.6376 115.295 68.9556 115.409 69.2767 115.376C69.9704 115.376 70.5966 114.965 70.876 114.324V114.327Z" fill="#333333"/>
<path d="M74.3989 115.895C74.1291 115.597 73.9878 115.201 74.0071 114.797V106.528L75.205 106.396V114.774C75.1921 114.916 75.2274 115.059 75.3013 115.179C75.388 115.273 75.5133 115.315 75.6385 115.299C75.7894 115.299 75.9404 115.276 76.0849 115.234L76.39 116.066C76.1009 116.228 75.7734 116.312 75.4426 116.309C75.054 116.316 74.6783 116.167 74.3989 115.891V115.895Z" fill="#333333"/>
<path d="M81.7851 107.176V115.062H85.4397L85.308 116.16H80.5776V107.166H81.7851V107.176Z" fill="#333333"/>
<path d="M87.8323 106.234C87.9865 106.386 88.0732 106.596 88.0732 106.813C88.0828 107.034 87.9961 107.247 87.8323 107.393C87.6653 107.542 87.447 107.62 87.2222 107.613C86.7918 107.636 86.4193 107.306 86.3968 106.868C86.3968 106.849 86.3968 106.83 86.3968 106.813C86.3904 106.593 86.4771 106.383 86.6377 106.234C86.7918 106.075 87.0038 105.988 87.2254 105.991C87.4534 105.981 87.675 106.069 87.8355 106.234H87.8323ZM87.8323 109.272V116.137H86.6473V109.272H87.8323Z" fill="#333333"/>
<path d="M95.0645 109.272L92.7587 116.137H91.3554L89.0078 109.272H90.2699L92.0522 115.072L93.8249 109.272H95.0645Z" fill="#333333"/>
<path d="M97.3894 106.234C97.5436 106.386 97.6303 106.596 97.6303 106.813C97.6399 107.034 97.5532 107.247 97.3894 107.393C97.2225 107.542 97.0041 107.62 96.7793 107.613C96.3489 107.636 95.9764 107.306 95.9539 106.868C95.9539 106.849 95.9539 106.83 95.9539 106.813C95.9475 106.593 96.0342 106.383 96.1948 106.234C96.5288 105.913 97.0555 105.913 97.3927 106.234H97.3894ZM97.3894 109.272V116.137H96.2044V109.272H97.3894Z" fill="#333333"/>
<path d="M104.047 109.676C104.416 110.097 104.599 110.651 104.557 111.211V116.137H103.372V111.39C103.405 111.027 103.308 110.667 103.099 110.369C102.888 110.152 102.595 110.039 102.293 110.062C101.95 110.062 101.613 110.172 101.336 110.379C101.028 110.629 100.771 110.933 100.575 111.279V116.15H99.3774V109.307H100.399L100.495 110.318C100.729 109.965 101.038 109.67 101.397 109.45C101.754 109.246 102.162 109.139 102.573 109.142C103.116 109.106 103.649 109.301 104.04 109.68L104.047 109.676Z" fill="#333333"/>
<path d="M112.072 109.589C111.796 109.68 111.513 109.741 111.224 109.764C110.912 109.764 110.55 109.764 110.135 109.764C110.868 110.02 111.352 110.726 111.333 111.506C111.362 112.138 111.112 112.75 110.649 113.174C110.126 113.631 109.448 113.864 108.758 113.822C108.462 113.828 108.167 113.783 107.887 113.689C107.781 113.764 107.698 113.861 107.637 113.974C107.576 114.084 107.547 114.21 107.55 114.337C107.55 114.709 107.842 114.897 108.443 114.897H109.532C109.952 114.887 110.367 114.972 110.749 115.15C111.079 115.295 111.362 115.529 111.564 115.83C111.757 116.112 111.857 116.452 111.847 116.795C111.873 117.423 111.561 118.019 111.031 118.353C110.309 118.754 109.487 118.942 108.661 118.89C108.074 118.906 107.486 118.829 106.921 118.66C106.545 118.55 106.224 118.304 106.018 117.97C105.826 117.611 105.732 117.206 105.745 116.798H106.834C106.821 117.031 106.869 117.261 106.975 117.469C107.117 117.653 107.316 117.779 107.54 117.831C107.897 117.922 108.263 117.961 108.629 117.951C109.146 117.996 109.666 117.906 110.142 117.689C110.444 117.54 110.627 117.226 110.611 116.889C110.62 116.601 110.485 116.332 110.251 116.163C109.946 115.979 109.593 115.891 109.239 115.911H108.151C107.685 115.95 107.223 115.817 106.847 115.538C106.561 115.315 106.397 114.972 106.4 114.606C106.4 114.376 106.471 114.149 106.596 113.958C106.744 113.734 106.934 113.54 107.152 113.388C106.42 113.051 105.964 112.3 105.999 111.49C105.993 111.056 106.111 110.629 106.346 110.263C106.577 109.897 106.905 109.599 107.293 109.408C107.707 109.2 108.167 109.093 108.632 109.1C109.079 109.11 109.525 109.09 109.972 109.035C110.277 109.003 110.575 108.938 110.864 108.838C111.092 108.75 111.375 108.64 111.725 108.475L112.085 109.592L112.072 109.589ZM107.579 110.402C107.11 111.056 107.11 111.94 107.579 112.594C107.862 112.892 108.26 113.048 108.668 113.022C109.072 113.048 109.471 112.896 109.756 112.604C110.004 112.293 110.135 111.905 110.126 111.506C110.145 110.69 109.509 110.01 108.7 109.981C108.286 109.968 107.884 110.117 107.579 110.399V110.402Z" fill="#333333"/>
<path d="M119.728 107.264C120.181 107.451 120.598 107.717 120.958 108.054L120.283 108.799C119.988 108.553 119.654 108.355 119.294 108.219C118.947 108.083 118.578 108.021 118.206 108.031C117.798 108.018 117.396 108.128 117.053 108.349C116.751 108.569 116.584 108.928 116.606 109.304C116.6 109.531 116.648 109.757 116.748 109.961C116.889 110.178 117.088 110.35 117.322 110.454C117.714 110.635 118.119 110.794 118.53 110.926C119.015 111.056 119.48 111.244 119.92 111.487C120.283 111.684 120.592 111.966 120.823 112.309C121.308 113.145 121.308 114.181 120.823 115.017C120.553 115.425 120.177 115.752 119.734 115.959C119.201 116.196 118.62 116.306 118.039 116.29C116.927 116.345 115.839 115.95 115.017 115.192L115.691 114.434C116.022 114.709 116.388 114.939 116.78 115.114C117.175 115.266 117.595 115.341 118.019 115.334C118.504 115.35 118.979 115.208 119.378 114.929C119.92 114.447 120.078 113.657 119.76 112.999C119.619 112.779 119.419 112.601 119.185 112.484C118.809 112.287 118.417 112.125 118.01 112.002C117.284 111.817 116.603 111.477 116.019 111.004C115.582 110.596 115.351 110.013 115.389 109.414C115.373 108.983 115.498 108.559 115.749 108.206C115.996 107.84 116.34 107.552 116.738 107.374C117.191 107.157 117.685 107.053 118.183 107.066C118.707 107.037 119.23 107.105 119.728 107.264Z" fill="#333333"/>
<path d="M127.667 110.062C128.11 110.868 128.322 111.785 128.277 112.704C128.312 113.618 128.071 114.521 127.58 115.292C127.133 115.943 126.385 116.319 125.602 116.28C124.921 116.319 124.259 116.037 123.819 115.512V118.803L122.634 118.936V109.272H123.646L123.733 110.204C123.964 109.867 124.275 109.592 124.635 109.404C124.969 109.22 125.341 109.126 125.724 109.129C126.494 109.055 127.243 109.414 127.67 110.062H127.667ZM126.992 112.704C126.992 110.949 126.491 110.071 125.457 110.071C125.126 110.071 124.808 110.178 124.545 110.379C124.259 110.586 124.018 110.849 123.826 111.147V114.502C124.147 115.023 124.715 115.341 125.325 115.334C126.433 115.328 126.989 114.45 126.989 112.701L126.992 112.704Z" fill="#333333"/>
<path d="M134.757 115.159C134.867 115.299 135.014 115.402 135.181 115.454L134.908 116.286C134.6 116.267 134.305 116.163 134.048 115.992C133.82 115.804 133.653 115.551 133.569 115.266C133.123 115.917 132.374 116.29 131.591 116.254C131.006 116.296 130.432 116.089 130.004 115.684C129.613 115.286 129.404 114.742 129.43 114.181C129.398 113.527 129.693 112.902 130.213 112.513C130.859 112.092 131.62 111.885 132.387 111.921H133.476V111.415C133.537 111.014 133.409 110.609 133.129 110.318C132.818 110.081 132.429 109.971 132.04 110.01C131.417 110.033 130.801 110.152 130.213 110.373L129.921 109.495C130.672 109.2 131.466 109.042 132.269 109.022C132.92 108.967 133.566 109.174 134.064 109.602C134.484 110.059 134.7 110.671 134.661 111.292V114.431C134.61 114.677 134.645 114.933 134.757 115.156V115.159ZM133.441 114.327V112.747H132.548C131.299 112.747 130.656 113.219 130.656 114.149C130.637 114.482 130.746 114.813 130.961 115.069C131.196 115.299 131.517 115.412 131.841 115.376C132.532 115.373 133.158 114.962 133.441 114.324V114.327Z" fill="#333333"/>
<path d="M140.294 109.304C140.647 109.43 140.975 109.618 141.261 109.864L140.686 110.609C140.467 110.45 140.23 110.321 139.979 110.224C139.738 110.139 139.485 110.097 139.228 110.104C138.711 110.081 138.223 110.331 137.934 110.761C137.593 111.357 137.436 112.041 137.478 112.724C137.436 113.394 137.593 114.061 137.924 114.644C138.226 115.056 138.711 115.286 139.218 115.26C139.469 115.257 139.719 115.214 139.957 115.14C140.217 115.033 140.464 114.897 140.695 114.735L141.238 115.512C140.654 115.995 139.918 116.261 139.16 116.257C138.332 116.296 137.532 115.953 136.986 115.325C136.418 114.586 136.135 113.666 136.193 112.737C136.18 112.083 136.302 111.432 136.553 110.829C136.761 110.311 137.115 109.867 137.574 109.557C138.04 109.236 138.598 109.08 139.16 109.106C139.546 109.106 139.928 109.178 140.291 109.304H140.294Z" fill="#333333"/>
<path d="M147.494 113.122H143.142C143.142 113.728 143.348 114.314 143.717 114.79C144.042 115.146 144.501 115.341 144.979 115.328C145.284 115.325 145.589 115.276 145.882 115.185C146.19 115.072 146.482 114.923 146.752 114.735L147.263 115.448C146.591 115.995 145.756 116.299 144.893 116.316C144.064 116.345 143.264 116.001 142.718 115.373C142.16 114.641 141.877 113.731 141.925 112.808C141.909 112.157 142.028 111.513 142.272 110.91C142.474 110.392 142.812 109.942 143.252 109.605C143.691 109.297 144.215 109.132 144.751 109.132C145.544 109.084 146.315 109.417 146.829 110.033C147.346 110.748 147.6 111.626 147.548 112.51C147.542 112.714 147.523 112.921 147.494 113.126V113.122ZM146.341 112.167C146.379 111.62 146.241 111.072 145.949 110.609C145.654 110.25 145.204 110.049 144.742 110.071C143.775 110.071 143.242 110.797 143.155 112.264H146.354L146.344 112.167H146.341Z" fill="#333333"/>
<path d="M155.834 107.264C156.287 107.451 156.704 107.717 157.064 108.054L156.389 108.799C156.094 108.553 155.76 108.355 155.4 108.219C155.069 108.089 154.719 108.028 154.366 108.031C153.958 108.018 153.557 108.128 153.213 108.349C152.908 108.572 152.741 108.935 152.767 109.314C152.76 109.54 152.809 109.767 152.908 109.971C153.049 110.188 153.249 110.36 153.483 110.463C153.872 110.651 154.276 110.81 154.69 110.936C155.172 111.069 155.641 111.257 156.081 111.496C156.441 111.697 156.749 111.979 156.983 112.319C157.221 112.724 157.343 113.187 157.33 113.657C157.343 114.142 157.211 114.619 156.948 115.027C156.682 115.438 156.306 115.765 155.859 115.969C155.326 116.209 154.745 116.322 154.164 116.309C153.053 116.335 151.974 115.924 151.161 115.156L151.836 114.398C152.166 114.674 152.532 114.904 152.924 115.078C153.319 115.237 153.74 115.312 154.164 115.299C154.652 115.315 155.134 115.172 155.535 114.894C155.901 114.615 156.103 114.172 156.078 113.708C156.084 113.449 156.026 113.19 155.904 112.964C155.763 112.743 155.564 112.565 155.33 112.449C154.957 112.248 154.562 112.086 154.154 111.966C153.428 111.781 152.748 111.441 152.163 110.969C151.73 110.564 151.498 109.984 151.534 109.388C151.521 108.954 151.646 108.527 151.893 108.17C152.144 107.808 152.484 107.519 152.882 107.338C153.335 107.128 153.83 107.027 154.328 107.043C154.838 107.014 155.349 107.089 155.827 107.264H155.834Z" fill="#333333"/>
<path d="M161.393 116.17C161.19 116.882 160.818 117.533 160.304 118.068C159.739 118.576 159.016 118.871 158.258 118.9L158.139 117.967C158.518 117.912 158.884 117.796 159.228 117.627C159.482 117.494 159.703 117.303 159.87 117.067C160.057 116.779 160.204 116.471 160.317 116.147H159.87L157.597 109.291H158.859L160.676 115.269L162.459 109.291H163.689L161.393 116.167V116.17Z" fill="#333333"/>
<path d="M168.005 109.314C168.4 109.443 168.766 109.644 169.094 109.906L168.593 110.651C168.32 110.463 168.024 110.318 167.713 110.214C167.43 110.114 167.132 110.065 166.833 110.071C166.512 110.055 166.194 110.139 165.921 110.314C165.587 110.577 165.507 111.053 165.735 111.412L165.886 111.587C166.239 111.798 166.624 111.953 167.029 112.047C167.645 112.167 168.227 112.429 168.725 112.815C169.107 113.158 169.312 113.66 169.28 114.175C169.309 114.793 169.017 115.386 168.509 115.733C167.938 116.095 167.273 116.283 166.595 116.27C165.664 116.299 164.752 115.979 164.039 115.37L164.669 114.644C165.211 115.072 165.882 115.305 166.573 115.302C166.955 115.325 167.334 115.231 167.662 115.027C168.04 114.696 168.15 114.149 167.922 113.699C167.793 113.527 167.62 113.398 167.421 113.326C167.093 113.181 166.756 113.064 166.409 112.977C165.831 112.86 165.288 112.598 164.832 112.219C164.514 111.892 164.344 111.448 164.354 110.991C164.354 110.638 164.469 110.295 164.681 110.016C164.903 109.715 165.205 109.485 165.552 109.346C165.956 109.178 166.387 109.097 166.823 109.103C167.228 109.103 167.629 109.171 168.008 109.31L168.005 109.314Z" fill="#333333"/>
<path d="M174.467 115.82C174.02 116.134 173.487 116.296 172.944 116.293C172.443 116.329 171.949 116.147 171.586 115.801C171.249 115.399 171.075 114.881 171.107 114.353V110.208H169.922V109.275H171.107V107.727L172.292 107.594V109.272H173.901L173.782 110.204H172.292V114.285C172.27 114.56 172.337 114.832 172.488 115.062C172.646 115.24 172.883 115.328 173.118 115.292C173.436 115.279 173.747 115.185 174.02 115.017L174.467 115.817V115.82Z" fill="#333333"/>
<path d="M180.533 113.122H176.181C176.181 113.728 176.387 114.314 176.756 114.79C177.084 115.14 177.54 115.334 178.018 115.328C178.323 115.325 178.628 115.276 178.921 115.185C179.229 115.075 179.521 114.923 179.791 114.735L180.314 115.448C179.637 115.992 178.799 116.296 177.932 116.316C177.103 116.345 176.307 115.998 175.757 115.373C175.199 114.641 174.916 113.731 174.964 112.808C174.955 112.157 175.07 111.513 175.311 110.91C175.513 110.392 175.851 109.942 176.291 109.605C176.731 109.297 177.254 109.132 177.79 109.132C178.584 109.084 179.354 109.417 179.868 110.033C180.392 110.748 180.645 111.626 180.587 112.51C180.533 112.717 180.533 112.97 180.533 113.126V113.122ZM179.38 112.167C179.422 111.62 179.287 111.072 178.988 110.609C178.693 110.246 178.246 110.049 177.781 110.071C176.801 110.071 176.281 110.797 176.194 112.264H179.38V112.167Z" fill="#333333"/>
<path d="M190.212 109.676C190.559 110.104 190.742 110.648 190.723 111.202V116.128H189.525V111.38C189.525 110.492 189.21 110.052 188.577 110.052C188.266 110.042 187.961 110.149 187.717 110.347C187.421 110.612 187.171 110.923 186.978 111.267V116.137H185.793V111.39C185.793 110.502 185.465 110.062 184.836 110.062C184.518 110.059 184.21 110.165 183.966 110.369C183.68 110.635 183.433 110.943 183.237 111.279V116.15H182.052V109.307H183.063L183.16 110.305C183.564 109.595 184.306 109.155 185.119 109.142C185.905 109.113 186.609 109.621 186.837 110.382C187.071 110.02 187.37 109.706 187.717 109.45C188.047 109.252 188.42 109.145 188.805 109.142C189.329 109.097 189.846 109.294 190.209 109.68L190.212 109.676Z" fill="#333333"/>
<path d="M195.922 109.314C196.317 109.446 196.683 109.647 197.011 109.906L196.5 110.651C196.23 110.463 195.932 110.314 195.62 110.214C195.338 110.11 195.039 110.062 194.74 110.071C194.419 110.059 194.101 110.143 193.828 110.314C193.494 110.577 193.414 111.053 193.642 111.412C193.642 111.412 193.738 111.532 193.806 111.587C194.143 111.794 194.509 111.95 194.894 112.047C195.511 112.167 196.092 112.429 196.59 112.815C196.972 113.155 197.181 113.65 197.155 114.165C197.184 114.784 196.885 115.373 196.372 115.713C195.806 116.086 195.142 116.273 194.467 116.251C193.53 116.293 192.611 115.972 191.901 115.35L192.531 114.625C193.07 115.059 193.742 115.295 194.435 115.295C194.817 115.321 195.196 115.224 195.524 115.02C195.778 114.848 195.928 114.56 195.925 114.253C195.935 114.055 195.887 113.861 195.784 113.692C195.659 113.524 195.489 113.394 195.296 113.32C194.965 113.177 194.621 113.061 194.275 112.97C193.7 112.853 193.16 112.591 192.707 112.212C192.129 111.62 192.059 110.69 192.544 110.02C192.768 109.718 193.074 109.485 193.424 109.349C193.822 109.181 194.252 109.1 194.686 109.106C195.11 109.093 195.53 109.165 195.925 109.314H195.922Z" fill="#333333"/>
<path d="M53.4959 80.208C48.3833 85.2117 40.252 85.2117 35.1395 80.208C31.7129 76.7524 31.7996 72.4644 31.7996 66.5637C31.7996 60.6629 31.7032 56.3749 35.1395 52.8966C40.2584 47.9059 48.3801 47.9059 53.4959 52.8966C56.9224 56.362 56.8775 60.6402 56.8775 66.5637C56.8775 72.4871 56.9224 76.7751 53.4959 80.208ZM48.5792 56.9449C47.5002 55.7304 45.9426 55.0633 44.3273 55.1248C42.7023 55.0795 41.1352 55.7434 40.0304 56.9449C38.7459 58.3829 38.4087 59.973 38.4087 66.5637C38.4087 73.1543 38.7459 74.725 40.0304 76.1824C42.3234 78.5628 46.0968 78.6179 48.4572 76.3055C48.4989 76.2666 48.5375 76.2245 48.5792 76.1824C49.8638 74.725 50.2556 73.1446 50.2556 66.5637C50.2556 59.9827 49.8638 58.3829 48.5792 56.9449Z" fill="#333333"/>
<path d="M67.3309 83.6734C63.612 83.9551 60.3685 81.144 60.0891 77.3936C60.0891 77.3936 60.0891 77.3904 60.0891 77.3872C60.0666 77.0925 60.0666 76.7945 60.0891 76.4998V49.4313H66.3V76.1144C66.3 77.5944 66.9198 78.375 68.4741 78.375H70.857V83.6734H67.3341H67.3309Z" fill="#333333"/>
<path d="M72.8672 54.3443V49.2564H79.2065V54.3443H72.8672ZM72.9539 83.6733V58.6225H79.1519V83.6733H72.9539Z" fill="#333333"/>
<path d="M91.3554 83.9584C87.4407 83.9584 83.9049 83.5211 80.7642 80.3505L84.833 76.2698C86.641 77.9215 89.0303 78.7701 91.4678 78.6276C93.6419 78.6276 95.8192 77.9021 95.8192 76.0269C95.8192 74.7768 95.1449 73.9218 93.1859 73.7113L89.2808 73.3259C84.7881 72.8887 82.0262 70.9131 82.0262 66.3078C82.0262 61.1098 86.5608 58.3246 91.6187 58.3246C95.4788 58.3246 98.7191 59.0047 101.102 61.2652L97.2836 65.1581C95.6201 63.9274 93.5777 63.3315 91.5192 63.4805C89.04 63.4805 87.9834 64.5784 87.9834 65.8835C87.9834 66.7936 88.3656 67.8591 90.5622 68.0761L94.4769 68.4712C99.3935 68.944 101.86 71.5868 101.86 75.8197C101.905 81.3253 97.2162 83.9584 91.3554 83.9584Z" fill="#333333"/>
<path d="M112.104 83.9584C108.189 83.9584 104.666 83.5211 101.513 80.3505L105.569 76.2698C107.374 77.9215 109.76 78.7733 112.191 78.6276C114.365 78.6276 116.542 77.9021 116.542 76.0269C116.542 74.7768 115.868 73.9218 113.922 73.7113L110.007 73.3259C105.527 72.8887 102.765 70.9131 102.765 66.3078C102.765 61.1098 107.29 58.3246 112.348 58.3246C116.208 58.3246 119.448 59.0047 121.831 61.2652L118.013 65.1581C116.349 63.9274 114.307 63.3315 112.248 63.4805C109.769 63.4805 108.713 64.5784 108.713 65.8835C108.713 66.7936 109.104 67.8591 111.291 68.0761L115.206 68.4712C120.123 68.944 122.602 71.5868 122.602 75.8197C122.647 81.3253 117.968 83.9584 112.107 83.9584H112.104Z" fill="#333333"/>
<path d="M134.237 87.7411C133.848 88.9329 133.216 90.0276 132.378 90.9538C130.932 92.3043 129.006 93.0006 127.037 92.884H124.612V87.2261H126.038C127.48 87.482 128.858 86.5104 129.112 85.0563C129.112 85.0498 129.112 85.0401 129.115 85.0336L130.203 81.9634L121.722 58.7003H128.248L133.402 74.1874L138.36 58.7003H144.886L134.24 87.7443L134.237 87.7411Z" fill="#333333"/>
<path d="M152.876 83.9584C148.961 83.9584 145.438 83.5211 142.294 80.3505L146.341 76.2698C148.146 77.9215 150.532 78.7733 152.963 78.6276C155.137 78.6276 157.314 77.9021 157.314 76.0269C157.314 74.7768 156.649 73.9218 154.694 73.7113L150.779 73.3259C146.299 72.8887 143.537 70.9131 143.537 66.3078C143.537 61.1098 148.072 58.3246 153.12 58.3246C156.993 58.3246 160.233 59.0047 162.603 61.2652L158.785 65.1581C157.118 63.9242 155.073 63.3282 153.011 63.4805C150.532 63.4805 149.488 64.5784 149.488 65.8835C149.488 66.7936 149.87 67.8591 152.054 68.0761L155.969 68.4712C160.885 68.944 163.364 71.5868 163.364 75.8197C163.419 81.3253 158.785 83.9584 152.879 83.9584H152.876Z" fill="#333333"/>
<path d="M170.899 79.298V83.6863H170.128V79.298H168.725V78.5952H172.302V79.298H170.899Z" fill="#333333"/>
<path d="M176.737 83.7381V80.3052L175.562 82.8184H174.987L173.789 80.3052V83.7381H173.005V78.5952H173.789L175.269 81.7852L176.737 78.5952H177.498V83.7381H176.737Z" fill="#333333"/>
</g>
<defs>
<linearGradient id="paint0_linear_606_1601" x1="-13.5489" y1="38.6466" x2="79.2283" y2="6.41232" gradientUnits="userSpaceOnUse">
<stop stop-color="#009FE3"/>
<stop offset="1" stop-color="#007CB0"/>
</linearGradient>
<linearGradient id="paint1_linear_606_1601" x1="60.9397" y1="76.6164" x2="230.918" y2="-6.88048" gradientUnits="userSpaceOnUse">
<stop stop-color="#009FE3"/>
<stop offset="1" stop-color="#007CB0"/>
</linearGradient>
<clipPath id="clip0_606_1601">
<rect width="236" height="136" fill="white"/>
</clipPath>
</defs>
</svg>
