<svg width="120" height="99" viewBox="0 0 120 99" fill="none" xmlns="http://www.w3.org/2000/svg">
<path d="M62.6034 53.7154H34.2965L17.8502 64.1168L17.5166 53.7154H7.63632C4.36372 53.7154 1.7373 51.0681 1.7373 47.8164V7.89901C1.7373 4.62642 4.38456 2 7.63632 2H62.6034C65.876 2 68.5024 4.64726 68.5024 7.89901V47.7955C68.5024 51.0681 65.8552 53.6945 62.6034 53.6945V53.7154Z" fill="white" stroke="#009FE3" stroke-width="3" stroke-linecap="round" stroke-linejoin="round"/>
<path d="M56.8712 86.3757H85.1781L101.624 96.7771L101.958 86.3757H111.838C115.111 86.3757 117.737 83.7284 117.737 80.4767V40.5802C117.737 37.3076 115.09 34.6812 111.838 34.6812H56.8712C53.5986 34.6812 50.9722 37.3284 50.9722 40.5802V80.4767C50.9722 83.7493 53.6194 86.3757 56.8712 86.3757Z" fill="white" stroke="#666666" stroke-width="3" stroke-linecap="round" stroke-linejoin="round"/>
<path d="M22.4795 24.6996L31.6094 36.31L46.2373 17" stroke="#009FE3" stroke-width="3" stroke-linecap="round" stroke-linejoin="round"/>
<path d="M84.3641 70.5545L71.3154 56.9639C68.9392 52.2322 73.525 47.021 78.5277 48.7303L84.3641 52.8158L90.2006 48.7303C95.2033 47.0002 99.7683 52.2322 97.4128 56.9639L84.3641 70.5545Z" stroke="#666666" stroke-width="3" stroke-linecap="round" stroke-linejoin="round"/>
</svg>
