<svg width="99" height="99" viewBox="0 0 99 99" fill="none" xmlns="http://www.w3.org/2000/svg">
<path d="M49.2368 97C75.4703 97 96.7368 75.7335 96.7368 49.5C96.7368 23.2665 75.4703 2 49.2368 2C23.0033 2 1.73682 23.2665 1.73682 49.5C1.73682 75.7335 23.0033 97 49.2368 97Z" stroke="#666666" stroke-width="3" stroke-linecap="round" stroke-linejoin="round"/>
<path d="M74.5473 38.6287C75.9783 41.9551 76.7774 45.6347 76.7774 49.5001C76.7774 59.3123 71.6483 67.9166 63.936 72.8041" stroke="#009FE3" stroke-width="3" stroke-linecap="round" stroke-linejoin="round"/>
<path d="M34.5376 72.8041C26.8254 67.9165 21.6963 59.3123 21.6963 49.5001C21.6963 34.28 34.0359 21.959 49.2374 21.959C53.047 21.959 56.6709 22.7209 59.9602 24.1147" stroke="#009FE3" stroke-width="3" stroke-linecap="round" stroke-linejoin="round"/>
<path d="M49.2365 56.1529C52.9108 56.1529 55.8894 53.1742 55.8894 49.4999C55.8894 45.8256 52.9108 42.8469 49.2365 42.8469C45.5621 42.8469 42.5835 45.8256 42.5835 49.4999C42.5835 53.1742 45.5621 56.1529 49.2365 56.1529Z" stroke="#666666" stroke-width="3" stroke-linecap="round" stroke-linejoin="round"/>
<path d="M53.9385 44.7982L71.6859 27.0508" stroke="#666666" stroke-width="3" stroke-linecap="round" stroke-linejoin="round"/>
</svg>
