<svg width="42" height="30" viewBox="0 0 42 30" fill="none" xmlns="http://www.w3.org/2000/svg">
<path fill-rule="evenodd" clip-rule="evenodd" d="M41.1253 4.59116C40.6413 2.78304 39.2203 1.36214 37.4121 0.878128C34.1345 0 21 0 21 0C21 0 7.86549 0 4.59137 0.878128C2.78317 1.36214 1.3622 2.78304 0.878169 4.59116C0 7.86512 0 14.7 0 14.7C0 14.7 0 21.5349 0.878169 24.8088C1.3622 26.617 2.78317 28.0379 4.59137 28.5219C7.86549 29.4 21 29.4 21 29.4C21 29.4 34.1345 29.4 37.4086 28.5219C39.2168 28.0379 40.6378 26.617 41.1218 24.8088C42 21.5349 42 14.7 42 14.7C42 14.7 42 7.86512 41.1218 4.59116H41.1253ZM16.7993 20.999V8.40099L27.7107 14.7L16.7993 20.999Z" fill="#E42D24"/>
</svg>
