<svg width="52" height="52" viewBox="0 0 52 52" fill="none" xmlns="http://www.w3.org/2000/svg">
<path d="M26.0047 50.1024C39.3136 50.1024 50.1026 39.3134 50.1026 26.0045C50.1026 12.6956 39.3136 1.90662 26.0047 1.90662C12.6957 1.90662 1.90674 12.6956 1.90674 26.0045C1.90674 39.3134 12.6957 50.1024 26.0047 50.1024Z" fill="white" stroke="#666666" stroke-width="2" stroke-linecap="round" stroke-linejoin="round"/>
<path d="M10.5469 13.321H14.3365L19.9938 26.4669H31.9975L37.827 16.5848H15.7418" stroke="#009FE3" stroke-width="2" stroke-linecap="round" stroke-linejoin="round"/>
<path d="M36.4848 32.3237H19.7305C18.0442 32.3237 17.0832 30.4107 18.0805 29.0598L19.9934 26.4669" stroke="#009FE3" stroke-width="2" stroke-linecap="round" stroke-linejoin="round"/>
<path d="M19.1141 40.4923C20.5311 40.4923 21.6798 39.3436 21.6798 37.9266C21.6798 36.5096 20.5311 35.3608 19.1141 35.3608C17.6971 35.3608 16.5483 36.5096 16.5483 37.9266C16.5483 39.3436 17.6971 40.4923 19.1141 40.4923Z" stroke="#009FE3" stroke-width="2" stroke-linecap="round" stroke-linejoin="round"/>
<path d="M33.5931 40.4923C35.0101 40.4923 36.1588 39.3436 36.1588 37.9266C36.1588 36.5096 35.0101 35.3608 33.5931 35.3608C32.1761 35.3608 31.0273 36.5096 31.0273 37.9266C31.0273 39.3436 32.1761 40.4923 33.5931 40.4923Z" stroke="#009FE3" stroke-width="2" stroke-linecap="round" stroke-linejoin="round"/>
</svg>
