<svg width="19" height="16" viewBox="0 0 19 16" fill="none" xmlns="http://www.w3.org/2000/svg">
<g id="Group 139">
<path id="Vector" fill-rule="evenodd" clip-rule="evenodd" d="M14.7542 3.75043C14.8902 3.47854 15.1621 3.47854 15.1621 3.07068C14.6183 3.07068 14.2075 3.47854 13.9356 3.61447L4.8125 9.33307L6.58275 14.9157C6.85464 14.6438 6.85464 14.3719 6.85464 13.8252C6.85464 13.5533 6.99058 13.0095 6.99058 12.7347V11.7802C7.12654 11.6442 7.12654 11.5083 7.12654 11.2364C7.12654 11.1004 7.12654 10.9645 7.12654 10.8285C7.2625 10.5566 7.39844 10.6926 7.5344 10.4207C9.57942 8.24548 12.4373 5.79257 14.7542 3.75043Z" fill="#B3BFCA"/>
<path id="Vector_2" fill-rule="evenodd" clip-rule="evenodd" d="M0.317108 7.69879L4.81216 9.33307L14.3461 3.3397C14.6179 3.20374 14.8898 3.0678 15.1617 3.0678C15.1617 3.47564 14.6179 3.88349 14.3461 4.1583C12.3039 5.92854 8.89935 8.51738 7.1291 10.5595L8.76339 11.786C9.03528 11.786 9.71795 12.4657 9.85388 12.6017C10.1258 12.7376 11.2163 13.5562 11.3522 13.8281C11.6241 13.8281 11.6241 13.9641 11.7601 14.1L13.1225 15.0546C13.6663 15.4624 14.213 16.1451 15.1646 15.4624L18.1584 1.84423C18.5663 -0.469808 17.4787 -0.0619496 15.9803 0.481843L0.727847 6.61118C0.181174 6.88307 -0.362646 7.56283 0.317108 7.69879Z" fill="#FEFEFE"/>
<path id="Vector_3" fill-rule="evenodd" clip-rule="evenodd" d="M6.58203 14.9186L6.71797 15.0545C6.98986 15.0545 7.26178 14.9186 7.53368 14.6467L9.84772 12.6045C9.71179 12.4686 9.03203 11.7888 8.75723 11.7888L7.12292 10.5624L6.58203 14.9186Z" fill="#8595A7"/>
<path id="Vector_4" d="M13.8683 15.6346L7.00293 10.6538L9.96447 7.8269L13.8683 15.6346Z" fill="white"/>
</g>
</svg>
