<svg width="52" height="52" viewBox="0 0 52 52" fill="none" xmlns="http://www.w3.org/2000/svg">
<path d="M26.0043 27.8178C30.4757 27.8178 34.1004 24.193 34.1004 19.7217C34.1004 15.2503 30.4757 11.6256 26.0043 11.6256C21.533 11.6256 17.9082 15.2503 17.9082 19.7217C17.9082 24.193 21.533 27.8178 26.0043 27.8178Z" stroke="#009FE3" stroke-width="2" stroke-linecap="round" stroke-linejoin="round"/>
<path d="M7.68164 41.6528C11.2265 35.1795 18.0987 30.7915 25.9953 30.7915C33.892 30.7915 40.7641 35.1795 44.309 41.6528" stroke="#009FE3" stroke-width="2" stroke-linecap="round" stroke-linejoin="round"/>
<path d="M26.0047 50.1024C39.3136 50.1024 50.1026 39.3134 50.1026 26.0045C50.1026 12.6956 39.3136 1.90662 26.0047 1.90662C12.6957 1.90662 1.90674 12.6956 1.90674 26.0045C1.90674 39.3134 12.6957 50.1024 26.0047 50.1024Z" stroke="#666666" stroke-width="2" stroke-linecap="round" stroke-linejoin="round"/>
</svg>
