<svg width="18" height="19" viewBox="0 0 18 19" fill="none" xmlns="http://www.w3.org/2000/svg">
<g id="Group 140">
<path id="Vector" fill-rule="evenodd" clip-rule="evenodd" d="M8.912 0.64209C13.6847 0.64209 17.5463 4.50079 17.5463 9.23591C17.5463 14.0086 13.6876 17.8702 8.912 17.8702C7.39919 17.8702 5.92687 17.471 4.69463 16.7971L0 18.2694L1.47232 13.6557C0.717366 12.383 0.277684 10.8702 0.277684 9.23879C0.280592 4.50079 4.13926 0.64209 8.912 0.64209ZM6.9248 8.59665C6.9248 8.59665 7.56116 9.63219 8.5967 10.4652C9.63224 11.2607 10.1876 11.4198 10.1876 11.4198C10.1876 11.4198 11.1017 10.2657 11.2232 10.2657C11.3418 10.2251 12.1372 10.5838 12.4959 10.7834C12.8141 10.9425 13.2913 11.2202 13.2913 11.3417C13.2913 11.4227 13.2508 12.1371 13.0136 12.4148C12.7736 12.6549 12.0996 13.2913 11.4632 13.2103C8.35951 12.9702 5.49586 10.1471 4.9781 8.07886C4.89712 7.72019 4.93761 6.32886 5.21818 5.97019C5.53638 5.61153 5.73596 5.37433 6.13224 5.33384C6.5314 5.29335 6.7686 5.33384 6.88719 5.61152C7.04628 5.88921 7.64214 7.24293 7.68266 7.40202C7.72025 7.56399 6.88431 8.35946 6.9248 8.59665ZM5.68968 15.6805C6.64421 16.1578 7.75786 16.4355 8.912 16.4355C12.8893 16.4355 16.074 13.2132 16.074 9.23591C16.074 5.29623 12.8921 2.07391 8.912 2.07391C4.93182 2.07391 1.71242 5.29623 1.71242 9.233C1.71242 10.7834 2.23017 12.2181 3.02562 13.3694L2.23017 16.1144L4.97522 15.2785L5.68968 15.6805Z" fill="white"/>
<path id="Vector_2" fill-rule="evenodd" clip-rule="evenodd" d="M5.6899 15.6805C10.3845 18.0264 16.0742 14.645 16.0742 9.23588C16.0742 5.29623 12.8924 2.07391 8.91221 2.07391C3.06347 2.07391 -0.277443 8.67763 3.02298 13.3723L2.22751 16.1173L4.97256 15.2814L5.6899 15.6805ZM11.4577 13.2132C8.35396 12.9731 5.49031 10.1499 4.97256 8.08177C4.77298 7.24581 5.01305 5.45532 6.12669 5.33672C6.52586 5.29623 6.76305 5.33672 6.88164 5.61441C7.04073 5.89209 7.6366 7.24581 7.67709 7.4049C7.71758 7.56399 6.88165 8.35946 6.92214 8.59953C7.35891 9.35448 9.03081 11.145 10.1849 11.4256C11.2986 10.0342 11.0209 10.0342 12.4932 10.7892C12.8114 10.9483 13.2887 11.226 13.2887 11.3475C13.2887 12.5363 12.2155 13.2913 11.4577 13.2132Z" fill="#229000"/>
</g>
</svg>
