<svg width="63" height="60" viewBox="0 0 63 60" fill="none" xmlns="http://www.w3.org/2000/svg">
<path fill-rule="evenodd" clip-rule="evenodd" d="M14.4007 6.11067C19.2042 2.39439 25.1301 0.471915 31.0619 0.190281C30.7289 5.7283 30.6911 11.3774 29.0959 16.7407C27.9034 20.9384 24.966 24.6518 21.0549 26.4529C15.1714 29.004 8.67548 28.7677 2.44244 28.985C2.6297 20.0554 7.3561 11.3591 14.4007 6.11067Z" fill="black"/>
<path fill-rule="evenodd" clip-rule="evenodd" d="M33.2251 0.438477C38.4598 0.925754 43.6844 2.37873 48.0169 5.48718C55.7443 10.7216 60.6825 20.0597 60.6272 29.6703C54.873 29.4235 48.9463 29.4663 43.4706 27.482C39.5174 26.0065 36.2372 22.7391 34.9323 18.5919C33.0165 12.7895 33.1986 6.51328 33.2251 0.438477Z" fill="black"/>
<path fill-rule="evenodd" clip-rule="evenodd" d="M44.5457 32.5841C49.8415 31.1298 55.339 31.1204 60.7576 31.0275C60.4124 38.5906 57.1196 46.0195 51.7244 51.2532C46.5202 56.5143 39.3308 59.5238 32.1134 59.7759C32.3843 53.5935 32.4177 47.1861 34.7293 41.3343C36.3784 37.0097 40.2483 33.8063 44.5457 32.5841Z" fill="black"/>
<path fill-rule="evenodd" clip-rule="evenodd" d="M2.5529 30.353C9.09321 30.6363 16.0888 30.3723 21.9916 33.6421C26.031 35.8192 28.3426 40.3056 29.1055 44.8126C29.9827 49.6371 29.9093 54.5798 29.9277 59.4764C22.2037 59.1176 14.6985 55.5461 9.62378 49.5871C5.16951 44.3436 2.37951 37.4187 2.5529 30.353Z" fill="black"/>
</svg>
