<svg width="60" height="42" viewBox="0 0 60 42" fill="none" xmlns="http://www.w3.org/2000/svg">
<path fill-rule="evenodd" clip-rule="evenodd" d="M58.7504 6.55338C58.0589 3.97249 56.029 1.9443 53.4458 1.25343C48.7636 0 30 0 30 0C30 0 11.2364 0 6.5591 1.25343C3.97596 1.9443 1.946 3.97249 1.25453 6.55338C0 11.2266 0 20.9827 0 20.9827C0 20.9827 0 30.7387 1.25453 35.4119C1.946 37.9928 3.97596 40.021 6.5591 40.7119C11.2364 41.9653 30 41.9653 30 41.9653C30 41.9653 48.7636 41.9653 53.4409 40.7119C56.024 40.021 58.054 37.9928 58.7455 35.4119C60 30.7387 60 20.9827 60 20.9827C60 20.9827 60 11.2266 58.7455 6.55338H58.7504ZM23.999 29.9738V11.9915L39.5868 20.9827L23.999 29.9738Z" fill="#FF0000"/>
</svg>
