<svg width="54" height="54" viewBox="0 0 54 54" fill="none" xmlns="http://www.w3.org/2000/svg">
<path d="M41.381 15.9315C43.2486 15.9315 44.7626 14.4176 44.7626 12.55C44.7626 10.6824 43.2486 9.16846 41.381 9.16846C39.5135 9.16846 37.9995 10.6824 37.9995 12.55C37.9995 14.4176 39.5135 15.9315 41.381 15.9315Z" fill="white"/>
<path d="M40.5087 0L13.4913 0C6.03099 0 0 6.03099 0 13.4913L0 40.5087C0 47.969 6.03099 54 13.4913 54H40.5087C47.969 54 54 47.969 54 40.5087V13.4913C54 6.03099 47.969 0 40.5087 0ZM49.2937 40.5087C49.2937 45.3544 45.3544 49.2937 40.5087 49.2937H13.4913C8.64558 49.2937 4.70626 45.3544 4.70626 40.5087L4.70626 13.4913C4.70626 8.64558 8.64558 4.70626 13.4913 4.70626L40.5087 4.70626C45.3544 4.70626 49.2937 8.64558 49.2937 13.4913V40.5087Z" fill="white"/>
<path d="M27.0177 13.4912C19.5574 13.4912 13.5264 19.5222 13.5264 26.9825C13.5264 34.4428 19.5574 40.4738 27.0177 40.4738C34.4779 40.4738 40.5089 34.4428 40.5089 26.9825C40.5089 19.5222 34.4779 13.4912 27.0177 13.4912ZM27.0177 35.7675C22.1719 35.7675 18.2326 31.8282 18.2326 26.9825C18.2326 22.1368 22.1719 18.1975 27.0177 18.1975C31.8634 18.1975 35.8027 22.1368 35.8027 26.9825C35.8027 31.8282 31.8634 35.7675 27.0177 35.7675Z" fill="white"/>
</svg>
